<?xml version="1.0" encoding="iso-8859-1"?>
<!-- Generator: Adobe Illustrator 19.0.0, SVG Export Plug-In . SVG Version: 6.00 Build 0)  -->
<svg version="1.1" xmlns="http://www.w3.org/2000/svg" xmlns:xlink="http://www.w3.org/1999/xlink" x="0px" y="0px"
	 viewBox="0 0 1783.2 492.1" enable-background="new 0 0 1783.2 492.1" xml:space="preserve">
<g id="Warstwa_2">
	<g id="cien_bok">
		<polygon fill="#B5E0FC" points="206.7,140.8 112.5,193.1 112.5,297.9 206.7,350.2 301,297.9 301,193.1 		"/>
	</g>
	<g id="cien_gora">
		<polygon fill="#BDE4FD" points="206.8,140.8 112.5,193.2 206.8,245.5 301,193.2 		"/>
	</g>
	<g id="cien_bok_1_">
		<polygon fill="#B9E3FC" points="206.8,245.4 206.8,349.9 300.8,297.7 300.8,193.2 		"/>
	</g>
	<g id="siatka_mala" opacity="0.4">
		<path fill-rule="evenodd" clip-rule="evenodd" fill="#0496FF" d="M301,193.2h-0.2l0.1-0.1l-15.7-8.7l-15.7-8.7l-15.7-8.7
			l-15.7-8.7l-15.7-8.7l-15.7-8.7l-0.1,0.2l-0.1-0.2l-15.7,8.7l-15.7,8.7l0.1,0.2h-0.2v17.1l-15.2-8.4l14.6-8.6l-0.2-0.3l-14.8,8.7
			l0,0l-15.7,8.7l-15.7,8.7l-15.7,8.7l0.1,0.2h-0.2v104.6h0.2l-0.1,0.2l15.7,8.7l15.7,8.7l15.7,8.7l15.7,8.7l0,0l15.7,8.7l0.1-0.1h0
			l-0.1,0.2l15.7,8.7l0.1-0.2l0.1,0.2l15.7-8.7l15.7-8.7l0,0l15.7-8.7l15.7-8.7l-0.1-0.1l0,0l0.1,0.1l15.7-8.7l15.7-8.7l-0.1-0.2
			h0.2V193.2z M207,245.6l15.2-8.4V254L207,245.6z M222,254.3l-15.2,8.4v-16.8L222,254.3z M206.8,245.3v-16.8l15.2,8.4L206.8,245.3z
			 M207,228.1l15.2-8.4v16.8L207,228.1z M206.5,245.3l-15.2-8.4l15.2-8.4V245.3z M206.3,245.6l-15.2,8.4v-16.8L206.3,245.6z
			 M190.8,254l-15.2-8.4l15.2-8.4V254z M206.5,245.9v16.8l-15.2-8.4L206.5,245.9z M222.1,254.6v16.8L207,263L222.1,254.6z
			 M222.5,237.1l15.2,8.4l-15.2,8.4V237.1z M222.5,219.7l15.2,8.4l-15.2,8.4V219.7z M206.8,227.8V211l15.2,8.4L206.8,227.8z
			 M191.1,236.6v-16.8l15.2,8.4L191.1,236.6z M175.4,245.3v-16.8l15.2,8.4L175.4,245.3z M190.6,254.3l-15.2,8.4v-16.8L190.6,254.3z
			 M190.8,254.6v16.8l-15.2-8.4L190.8,254.6z M191.1,254.6l15.2,8.4l-15.2,8.4V254.6z M222,271.7l-15.2,8.4v-16.8L222,271.7z
			 M222.5,254.6l15.2,8.4l-15.2,8.4V254.6z M222.7,254.3l15.2-8.4v16.8L222.7,254.3z M222.7,236.9l15.2-8.4v16.8L222.7,236.9z
			 M222.7,219.4l15.2-8.4v16.8L222.7,219.4z M207,210.7l15.2-8.4v16.8L207,210.7z M206.5,227.8l-15.2-8.4l15.2-8.4V227.8z
			 M190.8,236.6l-15.2-8.4l15.2-8.4V236.6z M175.1,245.3l-15.2-8.4l15.2-8.4V245.3z M175.1,262.7l-15.2-8.4l15.2-8.4V262.7z
			 M190.6,271.7l-15.2,8.4v-16.8L190.6,271.7z M206.5,263.3v16.8l-15.2-8.4L206.5,263.3z M222.1,272v16.8l-15.2-8.4L222.1,272z
			 M237.8,263.3v16.8l-15.2-8.4L237.8,263.3z M238.2,245.9l15.2,8.4l-15.2,8.4V245.9z M238.2,228.4l15.2,8.4l-15.2,8.4V228.4z
			 M238.2,211l15.2,8.4l-15.2,8.4V211z M222.5,219.1v-16.8l15.2,8.4L222.5,219.1z M206.8,210.4v-16.8L222,202L206.8,210.4z
			 M191.1,219.1v-16.8l15.2,8.4L191.1,219.1z M175.4,227.8V211l15.2,8.4L175.4,227.8z M159.7,236.6v-16.8l15.2,8.4L159.7,236.6z
			 M174.9,245.6l-15.2,8.4v-16.8L174.9,245.6z M174.9,263l-15.2,8.4v-16.8L174.9,263z M175.1,263.3v16.8l-15.2-8.4L175.1,263.3z
			 M190.8,272v16.8l-15.2-8.4L190.8,272z M191.1,272l15.2,8.4l-15.2,8.4V272z M222,289.2l-15.2,8.4v-16.8L222,289.2z M222.5,272
			l15.2,8.4l-15.2,8.4V272z M238.2,263.3l15.2,8.4l-15.2,8.4V263.3z M238.4,263l15.2-8.4v16.8L238.4,263z M238.4,245.6l15.2-8.4V254
			L238.4,245.6z M238.4,228.1l15.2-8.4v16.8L238.4,228.1z M238.4,210.7l15.2-8.4v16.8L238.4,210.7z M222.7,202l15.2-8.4v16.8
			L222.7,202z M207,193.3l15.2-8.4v16.8L207,193.3z M206.5,210.4l-15.2-8.4l15.2-8.4V210.4z M190.8,219.1l-15.2-8.4l15.2-8.4V219.1z
			 M175.1,227.8l-15.2-8.4l15.2-8.4V227.8z M159.4,236.6l-15.2-8.4l15.2-8.4V236.6z M159.4,254l-15.2-8.4l15.2-8.4V254z
			 M159.4,271.4l-15.2-8.4l15.2-8.4V271.4z M174.9,280.5l-15.2,8.4V272L174.9,280.5z M190.6,289.2l-15.2,8.4v-16.8L190.6,289.2z
			 M206.5,280.7v16.8l-15.2-8.4L206.5,280.7z M222.1,289.5v16.8l-15.2-8.4L222.1,289.5z M237.8,280.7v16.8l-15.2-8.4L237.8,280.7z
			 M253.5,272v16.9l-15.2-8.4L253.5,272z M253.9,254.6l15.2,8.4l-15.2,8.4V254.6z M253.9,237.1l15.2,8.4l-15.2,8.4V237.1z
			 M253.9,219.7l15.2,8.4l-15.2,8.4V219.7z M253.9,202.3l15.2,8.4l-15.2,8.4V202.3z M238.2,210.4v-16.8l15.2,8.4L238.2,210.4z
			 M222.5,201.7v-16.8l15.2,8.4L222.5,201.7z M206.8,193v-16.8l15.2,8.4L206.8,193z M191.1,201.7v-16.8l15.2,8.4L191.1,201.7z
			 M175.4,210.4v-16.8l15.2,8.4L175.4,210.4z M159.7,219.1v-16.8l15.2,8.4L159.7,219.1z M159.4,219.1l-15.2-8.4l15.2-8.4V219.1z
			 M159.2,219.4l-15.2,8.4V211L159.2,219.4z M159.2,236.9l-15.2,8.4v-16.8L159.2,236.9z M159.2,254.3l-15.2,8.4v-16.8L159.2,254.3z
			 M159.2,271.7l-15.2,8.4v-16.8L159.2,271.7z M159.4,272v16.8l-15.2-8.4L159.4,272z M175.1,280.7v16.8l-15.2-8.4L175.1,280.7z
			 M190.8,289.5v16.8l-15.2-8.4L190.8,289.5z M191.1,289.5l15.2,8.4l-15.2,8.4V289.5z M222,306.6l-15.2,8.4v-16.8L222,306.6z
			 M222.5,289.5l15.2,8.4l-15.2,8.4V289.5z M238.2,280.7l15.2,8.4l-15.2,8.4V280.7z M253.9,272l15.2,8.4l-15.2,8.4V272z
			 M254.1,271.7l15.2-8.4v16.8L254.1,271.7z M254.1,254.3l15.2-8.4v16.8L254.1,254.3z M254.1,236.9l15.2-8.4v16.8L254.1,236.9z
			 M254.1,219.4l15.2-8.4v16.8L254.1,219.4z M254.1,202l15.2-8.4v16.8L254.1,202z M238.4,193.3l15.2-8.4v16.8L238.4,193.3z
			 M222.7,184.5l15.2-8.4V193L222.7,184.5z M207,175.8l15.2-8.4v16.8L207,175.8z M206.5,193l-15.2-8.4l15.2-8.4V193z M190.8,201.7
			l-15.2-8.4l15.2-8.4V201.7z M175.1,210.4l-15.2-8.4l15.2-8.4V210.4z M144,210.4v-16.8l15.2,8.4L144,210.4z M143.7,227.8l-15.2-8.4
			l15.2-8.4V227.8z M143.7,245.3l-15.2-8.4l15.2-8.4V245.3z M143.7,262.7l-15.2-8.4l15.2-8.4V262.7z M143.7,280.2l-15.2-8.4
			l15.2-8.4V280.2z M159.2,289.2l-15.2,8.4v-16.8L159.2,289.2z M174.9,297.9l-15.2,8.4v-16.8L174.9,297.9z M190.6,306.6l-15.2,8.4
			v-16.8L190.6,306.6z M206.5,298.2V315l-15.2-8.4L206.5,298.2z M222.1,306.9v16.8l-15.2-8.4L222.1,306.9z M237.8,298.2V315
			l-15.2-8.4L237.8,298.2z M253.5,289.5v16.9l-15.2-8.4L253.5,289.5z M269.2,280.7v16.9l-15.2-8.4L269.2,280.7z M269.6,263.3
			l15.2,8.4l-15.2,8.4V263.3z M269.6,245.9l15.2,8.4l-15.2,8.4V245.9z M269.6,228.4l15.2,8.4l-15.2,8.4V228.4z M269.6,211l15.2,8.4
			l-15.2,8.4V211z M269.6,193.5l15.2,8.4l-15.2,8.4V193.5z M253.9,201.7v-16.8l15.2,8.4L253.9,201.7z M238.2,193v-16.8l15.2,8.4
			L238.2,193z M222.5,184.2v-16.8l15.2,8.4L222.5,184.2z M206.8,175.5v-16.8l15.2,8.4L206.8,175.5z M206.5,175.5l-15.2-8.4l15.2-8.4
			V175.5z M206.3,175.8l-15.2,8.4v-16.8L206.3,175.8z M175.4,193v-16.8l15.2,8.4L175.4,193z M159.7,201.7v-16.8l15.2,8.4
			L159.7,201.7z M159.4,201.7l-15.2-8.4l15.2-8.4V201.7z M143.7,210.4l-15.2-8.4l15.2-8.4V210.4z M143.5,210.7l-15.2,8.4v-16.8
			L143.5,210.7z M143.5,228.1l-15.2,8.4v-16.8L143.5,228.1z M143.5,245.6l-15.2,8.4v-16.8L143.5,245.6z M143.5,263l-15.2,8.4v-16.8
			L143.5,263z M143.5,280.5l-15.2,8.4V272L143.5,280.5z M143.7,280.7v16.8l-15.2-8.4L143.7,280.7z M159.4,289.5v16.8l-15.2-8.4
			L159.4,289.5z M175.1,298.2V315l-15.2-8.4L175.1,298.2z M190.8,306.9v16.8l-15.2-8.4L190.8,306.9z M191.1,306.9l15.2,8.4
			l-15.2,8.4V306.9z M222,324.1l-15.2,8.4v-16.8L222,324.1z M222.5,306.9l15.2,8.4l-15.2,8.4V306.9z M238.2,298.2l15.2,8.4
			l-15.2,8.4V298.2z M253.9,289.5l15.2,8.4l-15.2,8.4V289.5z M269.6,280.7l15.2,8.4l-15.2,8.4V280.7z M269.8,280.4l15.2-8.4v16.9
			L269.8,280.4z M269.8,263l15.2-8.4v16.8L269.8,263z M269.8,245.6l15.2-8.4V254L269.8,245.6z M269.8,228.1l15.2-8.4v16.8
			L269.8,228.1z M269.8,210.7l15.2-8.4v16.8L269.8,210.7z M269.8,193.3l15.2-8.4v16.8L269.8,193.3z M254.1,184.5l15.2-8.4V193
			L254.1,184.5z M238.4,175.8l15.2-8.4v16.8L238.4,175.8z M222.7,167.1l15.2-8.4v16.8L222.7,167.1z M207,158.4l15.2-8.4v16.8
			L207,158.4z M191.1,166.8v-16.8l15.2,8.4L191.1,166.8z M190.8,184.2l-15.2-8.4l15.2-8.4V184.2z M175.1,193l-15.2-8.4l15.2-8.4V193
			z M144,193v-16.8l15.2,8.4L144,193z M128.3,201.7v-16.8l15.2,8.4L128.3,201.7z M128,219.1l-15.2-8.4l15.2-8.4V219.1z M128,236.6
			l-15.1-8.4l15.1-7.6V236.6z M128,254l-15.2-8.4l15.2-8.4V254z M128,271.4l-15.2-8.4l15.2-8.4V271.4z M128,288.9l-15.2-8.4L128,272
			V288.9z M143.5,297.9l-15.2,8.4v-16.8L143.5,297.9z M159.2,306.6L144,315v-16.8L159.2,306.6z M174.9,315.3l-15.2,8.4v-16.8
			L174.9,315.3z M190.6,324.1l-15.2,8.4v-16.8L190.6,324.1z M206.5,315.6v16.8l-15.2-8.4L206.5,315.6z M222.1,324.3v16.8l-15.2-8.4
			L222.1,324.3z M237.8,315.6v16.9l-15.2-8.4L237.8,315.6z M253.5,306.9v16.9l-15.2-8.4L253.5,306.9z M269.2,298.2V315l-15.2-8.4
			L269.2,298.2z M284.9,289.5v16.9l-15.2-8.4L284.9,289.5z M285.3,272l15.2,8.4l-15.2,8.4V272z M285.3,254.6l15.2,8.4l-15.2,8.4
			V254.6z M285.3,237.1l15.2,8.4l-15.2,8.4V237.1z M285.3,219.7l15.2,8.4l-15.2,8.4V219.7z M285.3,202.3l15.2,8.4l-15.2,8.4V202.3z
			 M285.3,184.8l15.2,8.4l-15.2,8.4V184.8z M269.6,193v-16.8l15.2,8.4L269.6,193z M253.9,184.2v-16.8l15.2,8.4L253.9,184.2z
			 M238.2,175.5v-16.8l15.2,8.4L238.2,175.5z M222.5,166.8v-16.8l15.2,8.4L222.5,166.8z M206.8,158.1v-16.8l15.2,8.4L206.8,158.1z
			 M206.5,158.1l-15.2-8.4l15.2-8.4V158.1z M190.8,166.8l-15.2-8.4l15.2-8.4V166.8z M190.6,167.1l-15.2,8.4v-16.8L190.6,167.1z
			 M159.7,184.2v-16.8l15.2,8.4L159.7,184.2z M159.4,184.2l-15.2-8.4l15.2-8.4V184.2z M143.7,193l-15.2-8.4l15.2-8.4V193z
			 M128,201.7l-15.2-8.4l15.2-8.4V201.7z M127.8,202l-15.2,8.4v-16.8L127.8,202z M128,219.5v0.7l-15.3,7.7V211L128,219.5z
			 M127.8,236.9l-15.2,8.4v-16.8L127.8,236.9z M127.8,254.3l-15.2,8.4v-16.8L127.8,254.3z M127.8,271.7l-15.2,8.4v-16.8L127.8,271.7
			z M127.8,289.2l-15.2,8.4v-16.8L127.8,289.2z M128,289.5v16.8l-15.2-8.4L128,289.5z M143.7,298.2V315l-15.2-8.4L143.7,298.2z
			 M159.4,306.9v16.8l-15.2-8.4L159.4,306.9z M175.1,315.6v16.8l-15.2-8.4L175.1,315.6z M190.8,324.3v16.8l-15.2-8.4L190.8,324.3z
			 M191.1,324.3l15.2,8.4l-15.2,8.4V324.3z M206.5,333.1v16.8l-15.2-8.4L206.5,333.1z M206.8,333.1l15.2,8.4l-15.2,8.4V333.1z
			 M222.5,324.3l15.2,8.4l-15.2,8.4V324.3z M238.2,315.6l15.2,8.4l-15.2,8.4V315.6z M253.9,306.9l15.2,8.4l-15.2,8.4V306.9z
			 M269.6,298.2l15.2,8.4l-15.2,8.4V298.2z M285.3,289.5l15.2,8.4l-15.2,8.4V289.5z M285.5,289.2l15.2-8.4v16.8L285.5,289.2z
			 M285.5,271.7l15.2-8.4v16.8L285.5,271.7z M285.5,254.3l15.2-8.4v16.8L285.5,254.3z M285.5,236.9l15.2-8.4v16.8L285.5,236.9z
			 M285.5,219.4l15.2-8.4v16.8L285.5,219.4z M285.5,202l15.2-8.4v16.8L285.5,202z"/>
	</g>
	<g id="boki" opacity="0.4">
		<polygon fill="#0496FF" points="50,157.3 49.5,157.5 49.5,332 206.5,419.3 363.6,332 363.6,157.5 363.1,157.3 206.5,244.2 		"/>
	</g>
	<g id="gora" opacity="0.2">
		<polygon fill="#0496FF" points="206.8,70 50.2,157 206.8,244 363.3,157 		"/>
	</g>
	<g id="siatka_duza" opacity="0.8">
		<path fill-rule="evenodd" clip-rule="evenodd" fill="#0496FF" d="M363.8,157.5h-0.2l0,0L332.3,140l-31.4-17.5l-31.4-17.5
			l-31.4-17.5l-31.4-17.5l-0.2,0.3l-0.2-0.3L175,87.7l-31.4,17.5l-31.4,17.5L80.9,140l-31.4,17.5l0.1,0.2h-0.3v174.9h0.3l-0.1,0.2
			l31.4,17.5l31.4,17.5l31.4,17.5l31.4,17.5l31.4,17.5l0.1-0.2h0.2l0.1,0.2l31.4-17.5l0,0l31.4-17.5l31.4-17.5l31.4-17.5l31.4-17.5
			l-0.1-0.2h0.3V157.5z M206.2,244.5l-30.3-16.9l30.3-16.9V244.5z M206.9,210.8l30.3,16.9l-30.3,16.9V210.8z M205.9,245.1L175.6,262
			v-33.7L205.9,245.1z M206.2,245.7v33.7l-30.3-16.9L206.2,245.7z M206.9,245.7l30.3,16.9l-30.3,16.9V245.7z M207.3,245.1l30.3-16.9
			V262L207.3,245.1z M207.3,210.2l30.3-16.9v33.7L207.3,210.2z M175.6,227.1v-33.7l30.3,16.9L175.6,227.1z M174.9,262l-30.3-16.9
			l30.3-16.9V262z M205.9,280.1l-30.3,16.9v-33.7L205.9,280.1z M237.6,263.2v33.7l-30.3-16.9L237.6,263.2z M238.3,228.3l30.3,16.9
			L238.3,262V228.3z M238.3,193.3l30.3,16.9l-30.3,16.9V193.3z M206.9,209.6v-33.7l30.3,16.9L206.9,209.6z M206.2,209.6l-30.3-16.9
			l30.3-16.9V209.6z M174.9,227.1l-30.3-16.9l30.3-16.9V227.1z M174.5,227.7l-30.3,16.9v-33.7L174.5,227.7z M174.5,262.6l-30.3,16.9
			v-33.7L174.5,262.6z M174.9,263.2v33.7l-30.3-16.9L174.9,263.2z M206.2,280.7v33.7l-30.3-16.9L206.2,280.7z M206.9,280.7
			l30.3,16.9l-30.3,16.9V280.7z M238.3,263.2l30.3,16.9l-30.3,16.9V263.2z M238.7,262.6l30.3-16.9v33.7L238.7,262.6z M238.7,227.7
			l30.3-16.9v33.7L238.7,227.7z M238.7,192.7l30.3-16.9v33.7L238.7,192.7z M207.3,175.3l30.3-16.9v33.7L207.3,175.3z M175.6,192.1
			v-33.7l30.3,16.9L175.6,192.1z M144.2,209.6v-33.7l30.3,16.9L144.2,209.6z M143.5,244.5l-30.3-16.9l30.3-16.9V244.5z M143.5,279.5
			l-30.3-16.9l30.3-16.9V279.5z M174.5,297.5l-30.3,16.9v-33.7L174.5,297.5z M205.9,315l-30.3,16.9v-33.7L205.9,315z M237.6,298.1
			v33.7L207.3,315L237.6,298.1z M269,280.7v33.7l-30.3-16.9L269,280.7z M269.7,245.7l30.3,16.9l-30.3,16.9V245.7z M269.7,210.8
			l30.3,16.9l-30.3,16.9V210.8z M269.7,175.9l30.3,16.9l-30.3,16.9V175.9z M238.3,192.1v-33.7l30.3,16.9L238.3,192.1z M206.9,174.7
			v-33.7l30.3,16.9L206.9,174.7z M206.2,174.7l-30.3-16.9l30.3-16.9V174.7z M174.9,192.1l-30.3-16.9l30.3-16.9V192.1z M143.5,209.6
			l-30.3-16.9l30.3-16.9V209.6z M143.1,210.2l-30.3,16.9v-33.7L143.1,210.2z M143.1,245.1L112.8,262v-33.7L143.1,245.1z
			 M143.1,280.1l-30.3,16.9v-33.7L143.1,280.1z M143.5,280.7v33.7l-30.3-16.9L143.5,280.7z M174.9,298.1v33.7L144.5,315L174.9,298.1
			z M206.2,315.6v33.7l-30.3-16.9L206.2,315.6z M206.9,315.6l30.3,16.9l-30.3,16.9V315.6z M238.3,298.1l30.3,16.9l-30.3,16.9V298.1z
			 M269.7,280.7l30.3,16.9l-30.3,16.9V280.7z M270.1,280.1l30.3-16.9v33.7L270.1,280.1z M270.1,245.1l30.3-16.9V262L270.1,245.1z
			 M270.1,210.2l30.3-16.9v33.7L270.1,210.2z M270.1,175.3l30.3-16.9v33.7L270.1,175.3z M238.7,157.8l30.3-16.9v33.7L238.7,157.8z
			 M207.3,140.3l30.3-16.9v33.7L207.3,140.3z M175.6,157.2v-33.7l30.3,16.9L175.6,157.2z M144.2,174.7v-33.7l30.3,16.9L144.2,174.7z
			 M112.8,192.1v-33.7l30.3,16.9L112.8,192.1z M112.1,227.1l-30.3-16.9l30.3-16.9V227.1z M112.1,262l-30.3-16.9l30.3-16.9V262z
			 M112.1,296.9l-30.3-16.9l30.3-16.9V296.9z M143.1,315l-30.3,16.9v-33.7L143.1,315z M174.5,332.4l-30.3,16.9v-33.7L174.5,332.4z
			 M205.9,349.9l-30.3,16.9V333L205.9,349.9z M237.6,333v33.7l-30.3-16.9L237.6,333z M269,315.6v33.7l-30.3-16.9L269,315.6z
			 M300.4,298.1v33.8L270,315L300.4,298.1z M301.1,263.2l30.3,16.9l-30.3,16.9V263.2z M301.1,228.3l30.3,16.9L301.1,262V228.3z
			 M301.1,193.3l30.3,16.9l-30.3,16.9V193.3z M301.1,158.4l30.3,16.9l-30.3,16.9V158.4z M269.7,174.7v-33.7l30.3,16.9L269.7,174.7z
			 M238.3,157.2v-33.7l30.3,16.9L238.3,157.2z M206.9,139.8V106l30.3,16.9L206.9,139.8z M206.2,139.8l-30.3-16.9l30.3-16.9V139.8z
			 M174.9,157.2l-30.3-16.9l30.3-16.9V157.2z M143.5,174.7l-30.3-16.9l30.3-16.9V174.7z M112.1,192.1l-30.3-16.9l30.3-16.9V192.1z
			 M111.7,192.7l-30.3,16.9v-33.7L111.7,192.7z M111.7,227.7l-30.3,16.9v-33.7L111.7,227.7z M111.7,262.6l-30.3,16.9v-33.7
			L111.7,262.6z M111.7,297.5l-30.3,16.9v-33.7L111.7,297.5z M112.1,298.1v33.7L81.8,315L112.1,298.1z M143.5,315.6v33.7l-30.3-16.9
			L143.5,315.6z M174.9,333v33.7l-30.3-16.9L174.9,333z M206.2,350.5v33.7l-30.3-16.9L206.2,350.5z M206.9,350.5l30.3,16.9
			l-30.3,16.9V350.5z M238.3,333l30.3,16.9l-30.3,16.9V333z M269.7,315.6l30.3,16.9l-30.3,16.9V315.6z M301.1,298.1l30.3,16.9
			l-30.3,16.9V298.1z M301.4,297.5l30.3-16.9v33.7L301.4,297.5z M301.4,262.6l30.3-16.9v33.7L301.4,262.6z M301.4,227.7l30.3-16.9
			v33.7L301.4,227.7z M301.4,192.7l30.3-16.9v33.7L301.4,192.7z M301.4,157.8l30.3-16.9v33.7L301.4,157.8z M270.1,140.3l30.3-16.9
			v33.7L270.1,140.3z M238.7,122.9L269,106v33.7L238.7,122.9z M207.3,105.4l30.3-16.9v33.7L207.3,105.4z M175.6,122.3V88.6
			l30.3,16.9L175.6,122.3z M144.2,139.8V106l30.3,16.9L144.2,139.8z M112.8,157.2v-33.7l30.3,16.9L112.8,157.2z M81.4,174.7v-33.7
			l30.3,16.9L81.4,174.7z M80.7,209.6l-30.3-16.9l30.3-16.9V209.6z M80.7,244.5l-30.3-16.9l30.3-16.9V244.5z M80.7,279.5l-30.3-16.9
			l30.3-16.9V279.5z M80.7,314.4l-30.3-16.9l30.3-16.9V314.4z M111.7,332.4l-30.3,16.9v-33.7L111.7,332.4z M143.1,349.9l-30.3,16.9
			V333L143.1,349.9z M174.5,367.4l-30.3,16.9v-33.7L174.5,367.4z M205.9,384.8l-30.3,16.9V368L205.9,384.8z M237.6,368v33.7
			l-30.3-16.9L237.6,368z M269,350.5v33.8l-30.3-16.9L269,350.5z M300.4,333v33.8L270,349.9L300.4,333z M331.8,315.6v33.8
			l-30.3-16.9L331.8,315.6z M332.4,280.6l30.3,16.9l-30.3,16.9V280.6z M332.4,245.7l30.3,16.9l-30.3,16.9V245.7z M332.4,210.8
			l30.3,16.9l-30.3,16.9V210.8z M332.4,175.9l30.3,16.9l-30.3,16.9V175.9z M332.4,140.9l30.3,16.9l-30.3,16.9V140.9z M301.1,157.2
			v-33.7l30.3,16.9L301.1,157.2z M269.7,139.8V106l30.3,16.9L269.7,139.8z M238.3,122.3V88.6l30.3,16.9L238.3,122.3z M206.9,104.8
			V71.1L237.2,88L206.9,104.8z M206.2,104.8L175.9,88l30.3-16.9V104.8z M174.9,122.3l-30.3-16.9l30.3-16.9V122.3z M143.5,139.8
			l-30.3-16.9l30.3-16.9V139.8z M112.1,157.2l-30.3-16.9l30.3-16.9V157.2z M80.7,174.7l-30.3-16.9l30.3-16.9V174.7z M80.4,175.3
			L50,192.1v-33.7L80.4,175.3z M80.4,210.2L50,227.1v-33.7L80.4,210.2z M80.4,245.1L50,262v-33.7L80.4,245.1z M80.4,280.1L50,296.9
			v-33.7L80.4,280.1z M80.4,315L50,331.9v-33.7L80.4,315z M80.7,315.6v33.7l-30.3-16.9L80.7,315.6z M112.1,333v33.7l-30.3-16.9
			L112.1,333z M143.5,350.5v33.7l-30.3-16.9L143.5,350.5z M174.9,368v33.7l-30.3-16.9L174.9,368z M206.2,385.4v33.7l-30.3-16.9
			L206.2,385.4z M206.9,385.4l30.3,16.9l-30.3,16.9V385.4z M238.3,368l30.3,16.9l-30.3,16.9V368z M269.7,350.5l30.3,16.9l-30.3,16.9
			V350.5z M301.1,333l30.3,16.9l-30.3,16.9V333z M332.4,315.6l30.3,16.9l-30.3,16.9V315.6z M332.8,315l30.3-16.9v33.8L332.8,315z
			 M332.8,280.1l30.3-16.9v33.7L332.8,280.1z M332.8,245.1l30.3-16.9V262L332.8,245.1z M332.8,210.2l30.3-16.9v33.7L332.8,210.2z
			 M332.8,175.3l30.3-16.9v33.7L332.8,175.3z"/>
	</g>
	<g id="obrys">
		<g>
			<g>
				<g>
					<polygon fill="none" stroke="#32A8FE" stroke-width="3" stroke-linejoin="round" stroke-miterlimit="10" points="49.3,157.5 
						206.5,244.8 206.5,419.3 49.3,332 					"/>
					<polygon fill="none" stroke="#32A8FE" stroke-width="3" stroke-linejoin="round" stroke-miterlimit="10" points="49.3,157.5 
						206.5,244.8 363.7,157.5 206.5,70.3 					"/>
					<polygon fill="none" stroke="#32A8FE" stroke-width="3" stroke-linejoin="round" stroke-miterlimit="10" points="363.7,157.5 
						206.5,244.8 206.5,419.3 363.7,332 					"/>
				</g>
			</g>
		</g>
	</g>
	<g id="decentralizacja_duza">
		<path fill-rule="evenodd" clip-rule="evenodd" fill="#32A8FE" d="M206.4,67.4c-1.9,0-3.5,1.6-3.5,3.5s1.6,3.5,3.5,3.5
			s3.5-1.6,3.5-3.5S208.3,67.4,206.4,67.4z M237.7,84.9c-1.9,0-3.5,1.6-3.5,3.5s1.6,3.5,3.5,3.5s3.5-1.6,3.5-3.5
			S239.7,84.9,237.7,84.9z M269.1,102.3c-1.9,0-3.5,1.6-3.5,3.5s1.6,3.5,3.5,3.5s3.5-1.6,3.5-3.5S271,102.3,269.1,102.3z
			 M300.4,119.7c-1.9,0-3.5,1.6-3.5,3.5s1.6,3.5,3.5,3.5s3.5-1.6,3.5-3.5S302.4,119.7,300.4,119.7z M331.8,137.1
			c-1.9,0-3.5,1.6-3.5,3.5s1.6,3.5,3.5,3.5s3.5-1.6,3.5-3.5S333.7,137.1,331.8,137.1z M363.1,161.5c1.9,0,3.5-1.6,3.5-3.5
			s-1.6-3.5-3.5-3.5s-3.5,1.6-3.5,3.5S361.2,161.5,363.1,161.5z M300.4,154.5c-1.9,0-3.5,1.6-3.5,3.5s1.6,3.5,3.5,3.5
			s3.5-1.6,3.5-3.5S302.4,154.5,300.4,154.5z M269.1,137.1c-1.9,0-3.5,1.6-3.5,3.5s1.6,3.5,3.5,3.5s3.5-1.6,3.5-3.5
			S271,137.1,269.1,137.1z M237.7,154.5c-1.9,0-3.5,1.6-3.5,3.5s1.6,3.5,3.5,3.5s3.5-1.6,3.5-3.5S239.7,154.5,237.7,154.5z
			 M237.7,119.7c-1.9,0-3.5,1.6-3.5,3.5s1.6,3.5,3.5,3.5s3.5-1.6,3.5-3.5S239.7,119.7,237.7,119.7z M206.4,137.1
			c-1.9,0-3.5,1.6-3.5,3.5s1.6,3.5,3.5,3.5s3.5-1.6,3.5-3.5S208.3,137.1,206.4,137.1z M175,154.5c-1.9,0-3.5,1.6-3.5,3.5
			s1.6,3.5,3.5,3.5s3.5-1.6,3.5-3.5S177,154.5,175,154.5z M206.4,102.3c-1.9,0-3.5,1.6-3.5,3.5s1.6,3.5,3.5,3.5s3.5-1.6,3.5-3.5
			S208.3,102.3,206.4,102.3z M175,84.9c-1.9,0-3.5,1.6-3.5,3.5s1.6,3.5,3.5,3.5s3.5-1.6,3.5-3.5S177,84.9,175,84.9z M143.7,102.3
			c-1.9,0-3.5,1.6-3.5,3.5s1.6,3.5,3.5,3.5s3.5-1.6,3.5-3.5S145.6,102.3,143.7,102.3z M175,119.7c-1.9,0-3.5,1.6-3.5,3.5
			s1.6,3.5,3.5,3.5s3.5-1.6,3.5-3.5S177,119.7,175,119.7z M143.7,137.1c-1.9,0-3.5,1.6-3.5,3.5s1.6,3.5,3.5,3.5s3.5-1.6,3.5-3.5
			S145.6,137.1,143.7,137.1z M112.3,119.7c-1.9,0-3.5,1.6-3.5,3.5s1.6,3.5,3.5,3.5s3.5-1.6,3.5-3.5S114.2,119.7,112.3,119.7z
			 M81,137.1c-1.9,0-3.5,1.6-3.5,3.5s1.6,3.5,3.5,3.5s3.5-1.6,3.5-3.5S82.9,137.1,81,137.1z M49.6,154.5c-1.9,0-3.5,1.6-3.5,3.5
			s1.6,3.5,3.5,3.5s3.5-1.6,3.5-3.5S51.5,154.5,49.6,154.5z M112.3,154.5c-1.9,0-3.5,1.6-3.5,3.5s1.6,3.5,3.5,3.5s3.5-1.6,3.5-3.5
			S114.2,154.5,112.3,154.5z M331.8,172c-1.9,0-3.5,1.6-3.5,3.5s1.6,3.5,3.5,3.5s3.5-1.6,3.5-3.5S333.7,172,331.8,172z M363.1,189.4
			c-1.9,0-3.5,1.6-3.5,3.5s1.6,3.5,3.5,3.5s3.5-1.6,3.5-3.5S365.1,189.4,363.1,189.4z M300.4,189.4c-1.9,0-3.5,1.6-3.5,3.5
			s1.6,3.5,3.5,3.5s3.5-1.6,3.5-3.5S302.4,189.4,300.4,189.4z M269.1,172c-1.9,0-3.5,1.6-3.5,3.5s1.6,3.5,3.5,3.5s3.5-1.6,3.5-3.5
			S271,172,269.1,172z M237.7,189.4c-1.9,0-3.5,1.6-3.5,3.5s1.6,3.5,3.5,3.5s3.5-1.6,3.5-3.5S239.7,189.4,237.7,189.4z M206.4,172
			c-1.9,0-3.5,1.6-3.5,3.5s1.6,3.5,3.5,3.5s3.5-1.6,3.5-3.5S208.3,172,206.4,172z M175,189.4c-1.9,0-3.5,1.6-3.5,3.5
			s1.6,3.5,3.5,3.5s3.5-1.6,3.5-3.5S177,189.4,175,189.4z M143.7,172c-1.9,0-3.5,1.6-3.5,3.5s1.6,3.5,3.5,3.5s3.5-1.6,3.5-3.5
			S145.6,172,143.7,172z M81,172c-1.9,0-3.5,1.6-3.5,3.5s1.6,3.5,3.5,3.5s3.5-1.6,3.5-3.5S82.9,172,81,172z M49.6,189.4
			c-1.9,0-3.5,1.6-3.5,3.5s1.6,3.5,3.5,3.5s3.5-1.6,3.5-3.5S51.5,189.4,49.6,189.4z M112.3,189.4c-1.9,0-3.5,1.6-3.5,3.5
			s1.6,3.5,3.5,3.5s3.5-1.6,3.5-3.5S114.2,189.4,112.3,189.4z M331.8,206.8c-1.9,0-3.5,1.6-3.5,3.5s1.6,3.5,3.5,3.5s3.5-1.6,3.5-3.5
			S333.7,206.8,331.8,206.8z M363.1,224.2c-1.9,0-3.5,1.6-3.5,3.5s1.6,3.5,3.5,3.5s3.5-1.6,3.5-3.5S365.1,224.2,363.1,224.2z
			 M300.4,224.2c-1.9,0-3.5,1.6-3.5,3.5s1.6,3.5,3.5,3.5s3.5-1.6,3.5-3.5S302.4,224.2,300.4,224.2z M269.1,206.8
			c-1.9,0-3.5,1.6-3.5,3.5s1.6,3.5,3.5,3.5s3.5-1.6,3.5-3.5S271,206.8,269.1,206.8z M237.7,224.2c-1.9,0-3.5,1.6-3.5,3.5
			s1.6,3.5,3.5,3.5s3.5-1.6,3.5-3.5S239.7,224.2,237.7,224.2z M206.4,206.8c-1.9,0-3.5,1.6-3.5,3.5s1.6,3.5,3.5,3.5s3.5-1.6,3.5-3.5
			S208.3,206.8,206.4,206.8z M175,224.2c-1.9,0-3.5,1.6-3.5,3.5s1.6,3.5,3.5,3.5s3.5-1.6,3.5-3.5S177,224.2,175,224.2z M143.7,206.8
			c-1.9,0-3.5,1.6-3.5,3.5s1.6,3.5,3.5,3.5s3.5-1.6,3.5-3.5S145.6,206.8,143.7,206.8z M81,206.8c-1.9,0-3.5,1.6-3.5,3.5
			s1.6,3.5,3.5,3.5s3.5-1.6,3.5-3.5S82.9,206.8,81,206.8z M49.6,224.2c-1.9,0-3.5,1.6-3.5,3.5s1.6,3.5,3.5,3.5s3.5-1.6,3.5-3.5
			S51.5,224.2,49.6,224.2z M112.3,224.2c-1.9,0-3.5,1.6-3.5,3.5s1.6,3.5,3.5,3.5s3.5-1.6,3.5-3.5S114.2,224.2,112.3,224.2z
			 M331.8,241.8c-1.9,0-3.5,1.6-3.5,3.5c0,1.9,1.6,3.5,3.5,3.5s3.5-1.6,3.5-3.5C335.3,243.3,333.7,241.8,331.8,241.8z M363.1,259.2
			c-1.9,0-3.5,1.6-3.5,3.5c0,1.9,1.6,3.5,3.5,3.5s3.5-1.6,3.5-3.5C366.6,260.7,365.1,259.2,363.1,259.2z M300.4,259.2
			c-1.9,0-3.5,1.6-3.5,3.5c0,1.9,1.6,3.5,3.5,3.5s3.5-1.6,3.5-3.5C303.9,260.7,302.4,259.2,300.4,259.2z M269.1,241.8
			c-1.9,0-3.5,1.6-3.5,3.5c0,1.9,1.6,3.5,3.5,3.5s3.5-1.6,3.5-3.5C272.6,243.3,271,241.8,269.1,241.8z M237.7,259.2
			c-1.9,0-3.5,1.6-3.5,3.5c0,1.9,1.6,3.5,3.5,3.5s3.5-1.6,3.5-3.5C241.2,260.7,239.7,259.2,237.7,259.2z M206.4,241.8
			c-1.9,0-3.5,1.6-3.5,3.5c0,1.9,1.6,3.5,3.5,3.5s3.5-1.6,3.5-3.5C209.9,243.3,208.3,241.8,206.4,241.8z M175,259.2
			c-1.9,0-3.5,1.6-3.5,3.5c0,1.9,1.6,3.5,3.5,3.5s3.5-1.6,3.5-3.5C178.5,260.7,177,259.2,175,259.2z M143.7,241.8
			c-1.9,0-3.5,1.6-3.5,3.5c0,1.9,1.6,3.5,3.5,3.5s3.5-1.6,3.5-3.5C147.2,243.3,145.6,241.8,143.7,241.8z M81,241.8
			c-1.9,0-3.5,1.6-3.5,3.5c0,1.9,1.6,3.5,3.5,3.5s3.5-1.6,3.5-3.5C84.5,243.3,82.9,241.8,81,241.8z M49.6,259.2
			c-1.9,0-3.5,1.6-3.5,3.5c0,1.9,1.6,3.5,3.5,3.5s3.5-1.6,3.5-3.5C53.1,260.7,51.5,259.2,49.6,259.2z M112.3,259.2
			c-1.9,0-3.5,1.6-3.5,3.5c0,1.9,1.6,3.5,3.5,3.5s3.5-1.6,3.5-3.5C115.8,260.7,114.2,259.2,112.3,259.2z M331.8,276.5
			c-1.9,0-3.5,1.6-3.5,3.5s1.6,3.5,3.5,3.5s3.5-1.6,3.5-3.5S333.7,276.5,331.8,276.5z M363.1,293.9c-1.9,0-3.5,1.6-3.5,3.5
			s1.6,3.5,3.5,3.5s3.5-1.6,3.5-3.5S365.1,293.9,363.1,293.9z M300.4,293.9c-1.9,0-3.5,1.6-3.5,3.5s1.6,3.5,3.5,3.5s3.5-1.6,3.5-3.5
			S302.4,293.9,300.4,293.9z M269.1,276.5c-1.9,0-3.5,1.6-3.5,3.5s1.6,3.5,3.5,3.5s3.5-1.6,3.5-3.5S271,276.5,269.1,276.5z
			 M237.7,293.9c-1.9,0-3.5,1.6-3.5,3.5s1.6,3.5,3.5,3.5s3.5-1.6,3.5-3.5S239.7,293.9,237.7,293.9z M206.4,276.5
			c-1.9,0-3.5,1.6-3.5,3.5s1.6,3.5,3.5,3.5s3.5-1.6,3.5-3.5S208.3,276.5,206.4,276.5z M175,293.9c-1.9,0-3.5,1.6-3.5,3.5
			s1.6,3.5,3.5,3.5s3.5-1.6,3.5-3.5S177,293.9,175,293.9z M143.7,276.5c-1.9,0-3.5,1.6-3.5,3.5s1.6,3.5,3.5,3.5s3.5-1.6,3.5-3.5
			S145.6,276.5,143.7,276.5z M81,276.5c-1.9,0-3.5,1.6-3.5,3.5s1.6,3.5,3.5,3.5s3.5-1.6,3.5-3.5S82.9,276.5,81,276.5z M49.6,293.9
			c-1.9,0-3.5,1.6-3.5,3.5s1.6,3.5,3.5,3.5s3.5-1.6,3.5-3.5S51.5,293.9,49.6,293.9z M112.3,293.9c-1.9,0-3.5,1.6-3.5,3.5
			s1.6,3.5,3.5,3.5s3.5-1.6,3.5-3.5S114.2,293.9,112.3,293.9z M331.8,311.3c-1.9,0-3.5,1.6-3.5,3.5s1.6,3.5,3.5,3.5s3.5-1.6,3.5-3.5
			S333.7,311.3,331.8,311.3z M363.1,328.7c-1.9,0-3.5,1.6-3.5,3.5s1.6,3.5,3.5,3.5s3.5-1.6,3.5-3.5S365.1,328.7,363.1,328.7z
			 M300.4,328.7c-1.9,0-3.5,1.6-3.5,3.5s1.6,3.5,3.5,3.5s3.5-1.6,3.5-3.5S302.4,328.7,300.4,328.7z M269.1,311.3
			c-1.9,0-3.5,1.6-3.5,3.5s1.6,3.5,3.5,3.5s3.5-1.6,3.5-3.5S271,311.3,269.1,311.3z M237.7,328.7c-1.9,0-3.5,1.6-3.5,3.5
			s1.6,3.5,3.5,3.5s3.5-1.6,3.5-3.5S239.7,328.7,237.7,328.7z M206.4,311.3c-1.9,0-3.5,1.6-3.5,3.5s1.6,3.5,3.5,3.5s3.5-1.6,3.5-3.5
			S208.3,311.3,206.4,311.3z M175,328.7c-1.9,0-3.5,1.6-3.5,3.5s1.6,3.5,3.5,3.5s3.5-1.6,3.5-3.5S177,328.7,175,328.7z M143.7,311.3
			c-1.9,0-3.5,1.6-3.5,3.5s1.6,3.5,3.5,3.5s3.5-1.6,3.5-3.5S145.6,311.3,143.7,311.3z M81,311.3c-1.9,0-3.5,1.6-3.5,3.5
			s1.6,3.5,3.5,3.5s3.5-1.6,3.5-3.5S82.9,311.3,81,311.3z M49.6,328.7c-1.9,0-3.5,1.6-3.5,3.5s1.6,3.5,3.5,3.5s3.5-1.6,3.5-3.5
			S51.5,328.7,49.6,328.7z M112.3,328.7c-1.9,0-3.5,1.6-3.5,3.5s1.6,3.5,3.5,3.5s3.5-1.6,3.5-3.5S114.2,328.7,112.3,328.7z
			 M331.8,346.1c-1.9,0-3.5,1.6-3.5,3.5s1.6,3.5,3.5,3.5s3.5-1.6,3.5-3.5S333.7,346.1,331.8,346.1z M300.4,363.6
			c-1.9,0-3.5,1.6-3.5,3.5s1.6,3.5,3.5,3.5s3.5-1.6,3.5-3.5S302.4,363.6,300.4,363.6z M269.1,346.1c-1.9,0-3.5,1.6-3.5,3.5
			s1.6,3.5,3.5,3.5s3.5-1.6,3.5-3.5S271,346.1,269.1,346.1z M237.7,363.6c-1.9,0-3.5,1.6-3.5,3.5s1.6,3.5,3.5,3.5s3.5-1.6,3.5-3.5
			S239.7,363.6,237.7,363.6z M206.4,346.1c-1.9,0-3.5,1.6-3.5,3.5s1.6,3.5,3.5,3.5s3.5-1.6,3.5-3.5S208.3,346.1,206.4,346.1z
			 M175,363.6c-1.9,0-3.5,1.6-3.5,3.5s1.6,3.5,3.5,3.5s3.5-1.6,3.5-3.5S177,363.6,175,363.6z M143.7,346.1c-1.9,0-3.5,1.6-3.5,3.5
			s1.6,3.5,3.5,3.5s3.5-1.6,3.5-3.5S145.6,346.1,143.7,346.1z M81,346.1c-1.9,0-3.5,1.6-3.5,3.5s1.6,3.5,3.5,3.5s3.5-1.6,3.5-3.5
			S82.9,346.1,81,346.1z M112.3,363.6c-1.9,0-3.5,1.6-3.5,3.5s1.6,3.5,3.5,3.5s3.5-1.6,3.5-3.5S114.2,363.6,112.3,363.6z M269.1,381
			c-1.9,0-3.5,1.6-3.5,3.5c0,1.9,1.6,3.5,3.5,3.5s3.5-1.6,3.5-3.5C272.6,382.5,271,381,269.1,381z M237.7,398.4
			c-1.9,0-3.5,1.6-3.5,3.5s1.6,3.5,3.5,3.5s3.5-1.6,3.5-3.5S239.7,398.4,237.7,398.4z M206.4,381c-1.9,0-3.5,1.6-3.5,3.5
			c0,1.9,1.6,3.5,3.5,3.5s3.5-1.6,3.5-3.5C209.9,382.5,208.3,381,206.4,381z M206.4,415.8c-1.9,0-3.5,1.6-3.5,3.5s1.6,3.5,3.5,3.5
			s3.5-1.6,3.5-3.5S208.3,415.8,206.4,415.8z M175,398.4c-1.9,0-3.5,1.6-3.5,3.5s1.6,3.5,3.5,3.5s3.5-1.6,3.5-3.5
			S177,398.4,175,398.4z M143.7,381c-1.9,0-3.5,1.6-3.5,3.5c0,1.9,1.6,3.5,3.5,3.5s3.5-1.6,3.5-3.5C147.2,382.5,145.6,381,143.7,381
			z"/>
	</g>
	<circle id="kolo" fill="none" stroke="#4FB5FF" stroke-width="7" stroke-miterlimit="10" cx="206.7" cy="245.5" r="181.6"/>
</g>
<g id="Warstwa_3">
	<g>
		<path fill="#359BD3" d="M519.3,168.2v65.9h102.9v18.4H519.3v72.3h107.3v18.4H496.5V149.7h130.2v18.4H519.3z"/>
		<path fill="#359BD3" d="M726.7,170v173.3h-22.9V170h-66.1v-20.3h154.4V170H726.7z"/>
		<path fill="#359BD3" d="M976.7,149.7v193.6h-22.9v-89.8H835.4v89.8h-22.9V149.7h22.9v85.4h118.5v-85.4H976.7z"/>
		<path fill="#359BD3" d="M1029.8,168.2v65.9h102.9v18.4h-102.9v72.3h107.3v18.4H1007V149.7h130.2v18.4H1029.8z"/>
		<path fill="#359BD3" d="M1166.5,343.3V149.7h96.5c21.8,0,37.1,4.1,46,12.3c8.9,8.2,13.4,22.5,13.4,42.8c0,17.9-2.4,30.3-7.3,37.4
			c-4.9,7-14.1,11.6-27.8,13.7v0.4c21.5,1.5,32.2,14,32.2,37.4v49.5h-22.9v-44.5c0-22.6-10.2-33.9-30.7-33.9h-7.6h-69v78.4H1166.5z
			 M1189.4,246.5h66.1c17.4,0,29.3-2.5,35.6-7.6c6.3-5.1,9.5-14.6,9.5-28.6c0-17.5-2.4-28.9-7.1-34.2c-4.7-5.3-14.8-7.9-30.2-7.9
			h-73.9V246.5z"/>
		<path fill="#359BD3" d="M1430,147.8c38.3,0,62.2,5.3,71.8,16c9.6,10.7,14.4,37.4,14.4,80.1c0,46-4.6,74.5-13.8,85.2
			c-9.2,10.8-33.4,16.2-72.4,16.2c-38.9,0-63-5.3-72.4-16c-9.4-10.7-14-38.3-14-82.8v-13.6l0.3-18.3c0-25.7,6.1-43.3,18.2-52.7
			C1374.2,152.5,1396.9,147.8,1430,147.8z M1429.9,166.2c-32.1,0-50.8,3.4-56.3,10.2c-5.4,6.8-8.2,30.2-8.2,70.1
			c0,40,2.7,63.4,8.2,70.2c5.4,6.8,24.2,10.2,56.3,10.2c32.2,0,51-3.4,56.4-10.2c5.4-6.8,8.2-30.2,8.2-70.2v-12.6l-0.1-18.3
			c0-21.4-3.8-34.9-11.3-40.7C1475.5,169.1,1457.8,166.2,1429.9,166.2z"/>
		<path fill="#359BD3" d="M1681.4,202.2h-22.7c0-15.6-2.7-25.5-8.2-29.7c-5.4-4.2-18.3-6.3-38.4-6.3c-24,0-39.4,2-46.3,6
			c-6.9,4-10.4,13-10.4,26.9c0,15.6,2.7,25.1,8.2,28.5c5.4,3.4,21.6,5.7,48.5,6.9c31.6,1.3,51.6,5.2,60.2,11.5
			c8.6,6.3,12.8,20.5,12.8,42.5c0,23.8-4.9,39.2-14.8,46.2c-9.8,7-31.6,10.5-65.2,10.5c-29.2,0-48.6-3.5-58.3-10.6
			c-9.6-7-14.5-21.3-14.5-42.6l-0.1-8.7h22.7v4.8c0,17.3,2.8,28.1,8.3,32.3c5.5,4.2,19.7,6.3,42.6,6.3c26.2,0,42.4-2.1,48.4-6.3
			c6-4.2,9.1-15.4,9.1-33.7c0-11.8-2.1-19.7-6.2-23.6c-4.1-3.9-12.7-6.3-25.8-7l-23.8-1.1L1585,254c-34.3-2.3-51.5-19.3-51.5-51.1
			c0-22,5-36.7,15-44.1c10-7.4,29.9-11.1,59.8-11.1c30.3,0,50,3.4,59.2,10.3C1676.8,164.9,1681.4,179.6,1681.4,202.2z"/>
	</g>
</g>
</svg>
