<svg xmlns="http://www.w3.org/2000/svg" viewBox="0 0 1783.19995 492.10001"><polygon points="206.7 140.8 112.5 193.1 112.5 297.9 206.7 350.2 301 297.9 301 193.1 206.7 140.8" fill="#eaeaea"/><polygon points="206.8 140.8 112.5 193.2 206.8 245.5 301 193.2 206.8 140.8" fill="#efefef"/><polygon points="206.8 245.4 206.8 349.9 300.8 297.7 300.8 193.2 206.8 245.4" fill="#e2e2e2"/><g opacity="0.4"><path d="M301,193.2h-.2l.1-.1-15.7-8.7-15.7-8.7L253.8,167l-15.7-8.7-15.7-8.7-15.7-8.7-.1.2-.1-.2-15.7,8.7-15.7,8.7.1.2H175v17.1l-15.2-8.4,14.6-8.6-.2-.3L159.4,167h0l-15.7,8.7L128,184.4l-15.7,8.7.1.2h-.2V297.9h.2l-.1.2,15.7,8.7,15.7,8.7,15.7,8.7,15.7,8.7h0l15.7,8.7.1-.1h0l-.1.2,15.7,8.7.1-.2.1.2,15.7-8.7,15.7-8.7h0l15.7-8.7,15.7-8.7-.1-.1h0l.1.1,15.7-8.7,15.7-8.7-.1-.2h.2V193.2Zm-94,52.4,15.2-8.4V254Zm15,8.7-15.2,8.4V245.9Zm-15.2-9V228.5l15.2,8.4Zm.2-17.2,15.2-8.4v16.8Zm-.5,17.2-15.2-8.4,15.2-8.4Zm-.2.3L191.1,254V237.2ZM190.8,254l-15.2-8.4,15.2-8.4Zm15.7-8.1v16.8l-15.2-8.4Zm15.6,8.7v16.8L207,263Zm.4-17.5,15.2,8.4-15.2,8.4Zm0-17.4,15.2,8.4-15.2,8.4Zm-15.7,8.1V211l15.2,8.4Zm-15.7,8.8V219.8l15.2,8.4Zm-15.7,8.7V228.5l15.2,8.4Zm15.2,9-15.2,8.4V245.9Zm.2.3v16.8L175.6,263Zm.3,0,15.2,8.4-15.2,8.4ZM222,271.7l-15.2,8.4V263.3Zm.5-17.1,15.2,8.4-15.2,8.4Zm.2-.3,15.2-8.4v16.8Zm0-17.4,15.2-8.4v16.8Zm0-17.5,15.2-8.4v16.8ZM207,210.7l15.2-8.4v16.8Zm-.5,17.1-15.2-8.4,15.2-8.4Zm-15.7,8.8-15.2-8.4,15.2-8.4Zm-15.7,8.7-15.2-8.4,15.2-8.4Zm0,17.4-15.2-8.4,15.2-8.4Zm15.5,9-15.2,8.4V263.3Zm15.9-8.4v16.8l-15.2-8.4Zm15.6,8.7v16.8l-15.2-8.4Zm15.7-8.7v16.8l-15.2-8.4Zm.4-17.4,15.2,8.4-15.2,8.4Zm0-17.5,15.2,8.4-15.2,8.4Zm0-17.4,15.2,8.4-15.2,8.4Zm-15.7,8.1V202.3l15.2,8.4Zm-15.7-8.7V193.6L222,202Zm-15.7,8.7V202.3l15.2,8.4Zm-15.7,8.7V211l15.2,8.4Zm-15.7,8.8V219.8l15.2,8.4Zm15.2,9L159.7,254V237.2Zm0,17.4-15.2,8.4V254.6Zm.2.3v16.8l-15.2-8.4Zm15.7,8.7v16.8l-15.2-8.4Zm.3,0,15.2,8.4-15.2,8.4ZM222,289.2l-15.2,8.4V280.8Zm.5-17.2,15.2,8.4-15.2,8.4Zm15.7-8.7,15.2,8.4-15.2,8.4Zm.2-.3,15.2-8.4v16.8Zm0-17.4,15.2-8.4V254Zm0-17.5,15.2-8.4v16.8Zm0-17.4,15.2-8.4v16.8ZM222.7,202l15.2-8.4v16.8ZM207,193.3l15.2-8.4v16.8Zm-.5,17.1L191.3,202l15.2-8.4Zm-15.7,8.7-15.2-8.4,15.2-8.4Zm-15.7,8.7-15.2-8.4,15.2-8.4Zm-15.7,8.8-15.2-8.4,15.2-8.4Zm0,17.4-15.2-8.4,15.2-8.4Zm0,17.4L144.2,263l15.2-8.4Zm15.5,9.1-15.2,8.4V272Zm15.7,8.7-15.2,8.4V280.8Zm15.9-8.5v16.8l-15.2-8.4Zm15.6,8.8v16.8l-15.2-8.4Zm15.7-8.8v16.8l-15.2-8.4Zm15.7-8.7v16.9l-15.2-8.4Zm.4-17.4,15.2,8.4-15.2,8.4V254.6Zm0-17.5,15.2,8.4-15.2,8.4V237.1Zm0-17.4,15.2,8.4-15.2,8.4V219.7Zm0-17.4,15.2,8.4-15.2,8.4V202.3Zm-15.7,8.1V193.6l15.2,8.4Zm-15.7-8.7V184.9l15.2,8.4ZM206.8,193V176.2l15.2,8.4Zm-15.7,8.7V184.9l15.2,8.4Zm-15.7,8.7V193.6l15.2,8.4Zm-15.7,8.7V202.3l15.2,8.4Zm-.3,0-15.2-8.4,15.2-8.4Zm-.2.3L144,227.8V211Zm0,17.5L144,245.3V228.5Zm0,17.4L144,262.7V245.9Zm0,17.4L144,280.1V263.3Zm.2.3v16.8l-15.2-8.4Zm15.7,8.7v16.8l-15.2-8.4Zm15.7,8.8v16.8l-15.2-8.4Zm.3,0,15.2,8.4-15.2,8.4ZM222,306.6,206.8,315V298.2Zm.5-17.1,15.2,8.4-15.2,8.4Zm15.7-8.8,15.2,8.4-15.2,8.4Zm15.7-8.7,15.2,8.4-15.2,8.4V272Zm.2-.3,15.2-8.4v16.8Zm0-17.4,15.2-8.4v16.8Zm0-17.4,15.2-8.4v16.8Zm0-17.5,15.2-8.4v16.8Zm0-17.4,15.2-8.4v16.8Zm-15.7-8.7,15.2-8.4v16.8Zm-15.7-8.8,15.2-8.4V193ZM207,175.8l15.2-8.4v16.8Zm-.5,17.2-15.2-8.4,15.2-8.4Zm-15.7,8.7-15.2-8.4,15.2-8.4Zm-15.7,8.7L159.9,202l15.2-8.4Zm-31.1,0V193.6l15.2,8.4Zm-.3,17.4-15.2-8.4,15.2-8.4Zm0,17.5-15.2-8.4,15.2-8.4Zm0,17.4-15.2-8.4,15.2-8.4Zm0,17.5-15.2-8.4,15.2-8.4Zm15.5,9L144,297.6V280.8Zm15.7,8.7-15.2,8.4V289.5Zm15.7,8.7L175.4,315V298.2Zm15.9-8.4V315l-15.2-8.4Zm15.6,8.7v16.8l-15.2-8.4Zm15.7-8.7V315l-15.2-8.4Zm15.7-8.7v16.9L238.3,298Zm15.7-8.8v16.9L254,289.2Zm.4-17.4,15.2,8.4-15.2,8.4Zm0-17.4,15.2,8.4-15.2,8.4Zm0-17.5,15.2,8.4-15.2,8.4Zm0-17.4,15.2,8.4-15.2,8.4Zm0-17.5,15.2,8.4-15.2,8.4Zm-15.7,8.2V184.9l15.2,8.4ZM238.2,193V176.2l15.2,8.4Zm-15.7-8.8V167.4l15.2,8.4Zm-15.7-8.7V158.7l15.2,8.4Zm-.3,0-15.2-8.4,15.2-8.4Zm-.2.3-15.2,8.4V167.4ZM175.4,193V176.2l15.2,8.4Zm-15.7,8.7V184.9l15.2,8.4Zm-.3,0-15.2-8.4,15.2-8.4Zm-15.7,8.7L128.5,202l15.2-8.4Zm-.2.3-15.2,8.4V202.3Zm0,17.4-15.2,8.4V219.7Zm0,17.5L128.3,254V237.2Zm0,17.4-15.2,8.4V254.6Zm0,17.5-15.2,8.4V272Zm.2.2v16.8l-15.2-8.4Zm15.7,8.8v16.8l-15.2-8.4Zm15.7,8.7V315l-15.2-8.4Zm15.7,8.7v16.8l-15.2-8.4Zm.3,0,15.2,8.4-15.2,8.4ZM222,324.1l-15.2,8.4V315.7Zm.5-17.2,15.2,8.4-15.2,8.4Zm15.7-8.7,15.2,8.4L238.2,315Zm15.7-8.7,15.2,8.4-15.2,8.4V289.5Zm15.7-8.8,15.2,8.4-15.2,8.4Zm.2-.3L285,272v16.9Zm0-17.4,15.2-8.4v16.8Zm0-17.4,15.2-8.4V254Zm0-17.5,15.2-8.4v16.8Zm0-17.4,15.2-8.4v16.8Zm0-17.4,15.2-8.4v16.8Zm-15.7-8.8,15.2-8.4V193Zm-15.7-8.7,15.2-8.4v16.8Zm-15.7-8.7,15.2-8.4v16.8ZM207,158.4l15.2-8.4v16.8Zm-15.9,8.4V150l15.2,8.4Zm-.3,17.4-15.2-8.4,15.2-8.4ZM175.1,193l-15.2-8.4,15.2-8.4ZM144,193V176.2l15.2,8.4Zm-15.7,8.7V184.9l15.2,8.4Zm-.3,17.4-15.2-8.4,15.2-8.4Zm0,17.5-15.1-8.4,15.1-7.6Zm0,17.4-15.2-8.4,15.2-8.4Zm0,17.4L112.8,263l15.2-8.4Zm0,17.5-15.2-8.4L128,272Zm15.5,9-15.2,8.4V289.5Zm15.7,8.7L144,315V298.2Zm15.7,8.7-15.2,8.4V306.9Zm15.7,8.8-15.2,8.4V315.7Zm15.9-8.5v16.8L191.3,324Zm15.6,8.7v16.8l-15.2-8.4Zm15.7-8.7v16.9l-15.2-8.4Zm15.7-8.7v16.9l-15.2-8.4Zm15.7-8.7V315L254,306.6Zm15.7-8.7v16.9L269.7,298Zm.4-17.5,15.2,8.4-15.2,8.4Zm0-17.4,15.2,8.4-15.2,8.4Zm0-17.5,15.2,8.4-15.2,8.4Zm0-17.4,15.2,8.4-15.2,8.4Zm0-17.4,15.2,8.4-15.2,8.4Zm0-17.5,15.2,8.4-15.2,8.4ZM269.6,193V176.2l15.2,8.4Zm-15.7-8.8V167.4l15.2,8.4Zm-15.7-8.7V158.7l15.2,8.4Zm-15.7-8.7V150l15.2,8.4Zm-15.7-8.7V141.3l15.2,8.4Zm-.3,0-15.2-8.4,15.2-8.4Zm-15.7,8.7-15.2-8.4,15.2-8.4Zm-.2.3-15.2,8.4V158.7Zm-30.9,17.1V167.4l15.2,8.4Zm-.3,0-15.2-8.4,15.2-8.4ZM143.7,193l-15.2-8.4,15.2-8.4ZM128,201.7l-15.2-8.4,15.2-8.4Zm-.2.3-15.2,8.4V193.6Zm.2,17.5v.7l-15.3,7.7V211Zm-.2,17.4-15.2,8.4V228.5Zm0,17.4-15.2,8.4V245.9Zm0,17.4-15.2,8.4V263.3Zm0,17.5-15.2,8.4V280.8Zm.2.3v16.8l-15.2-8.4Zm15.7,8.7V315l-15.2-8.4Zm15.7,8.7v16.8l-15.2-8.4Zm15.7,8.7v16.8L159.9,324Zm15.7,8.7v16.8l-15.2-8.4Zm.3,0,15.2,8.4-15.2,8.4Zm15.4,8.8v16.8l-15.2-8.4Zm.3,0,15.2,8.4-15.2,8.4Zm15.7-8.8,15.2,8.4-15.2,8.4Zm15.7-8.7,15.2,8.4-15.2,8.4Zm15.7-8.7,15.2,8.4-15.2,8.4V306.9Zm15.7-8.7,15.2,8.4L269.6,315Zm15.7-8.7,15.2,8.4-15.2,8.4Zm.2-.3,15.2-8.4v16.8Zm0-17.5,15.2-8.4v16.8Zm0-17.4,15.2-8.4v16.8Zm0-17.4,15.2-8.4v16.8Zm0-17.5,15.2-8.4v16.8Zm0-17.4,15.2-8.4v16.8Z" fill="#fff" fill-rule="evenodd"/></g><g opacity="0.4"><polygon points="50 157.3 49.5 157.5 49.5 332 206.5 419.3 363.6 332 363.6 157.5 363.1 157.3 206.5 244.2 50 157.3" fill="#d8d8d8"/></g><g opacity="0.2"><polygon points="206.8 70 50.2 157 206.8 244 363.3 157 206.8 70" fill="#e2e2e2"/></g><g opacity="0.8"><path d="M363.8,157.5h-.2L332.3,140l-31.4-17.5L269.5,105,238.1,87.5,206.7,70l-.2.3-.2-.3L175,87.7l-31.4,17.5-31.4,17.5L80.9,140,49.5,157.5l.1.2h-.3V332.6h.3l-.1.2,31.4,17.5,31.4,17.5,31.4,17.5,31.4,17.5,31.4,17.5.1-.2h.2l.1.2,31.4-17.5h0l31.4-17.5,31.4-17.5,31.4-17.5,31.4-17.5-.1-.2h.3V157.5Zm-157.6,87-30.3-16.9,30.3-16.9Zm.7-33.7,30.3,16.9-30.3,16.9Zm-1,34.3L175.6,262V228.3Zm.3.6v33.7l-30.3-16.9Zm.7,0,30.3,16.9-30.3,16.9Zm.4-.6,30.3-16.9V262Zm0-34.9,30.3-16.9V227Zm-31.7,16.9V193.4l30.3,16.9Zm-.7,34.9-30.3-16.9,30.3-16.9Zm31,18.1L175.6,297V263.3Zm31.7-16.9v33.7L207.3,280Zm.7-34.9,30.3,16.9L238.3,262Zm0-35,30.3,16.9-30.3,16.9Zm-31.4,16.3V175.9l30.3,16.9Zm-.7,0-30.3-16.9,30.3-16.9Zm-31.3,17.5-30.3-16.9,30.3-16.9Zm-.4.6-30.3,16.9V210.9Zm0,34.9-30.3,16.9V245.8Zm.4.6v33.7L144.6,280Zm31.3,17.5v33.7l-30.3-16.9Zm.7,0,30.3,16.9-30.3,16.9Zm31.4-17.5,30.3,16.9L238.3,297Zm.4-.6L269,245.7v33.7Zm0-34.9L269,210.8v33.7Zm0-35L269,175.8v33.7Zm-31.4-17.4,30.3-16.9v33.7Zm-31.7,16.8V158.4l30.3,16.9Zm-31.4,17.5V175.9l30.3,16.9Zm-.7,34.9-30.3-16.9,30.3-16.9Zm0,35-30.3-16.9,30.3-16.9Zm31,18-30.3,16.9V280.7ZM205.9,315l-30.3,16.9V298.2Zm31.7-16.9v33.7L207.3,315ZM269,280.7v33.7l-30.3-16.9Zm.7-35L300,262.6l-30.3,16.9Zm0-34.9L300,227.7l-30.3,16.9Zm0-34.9L300,192.8l-30.3,16.9Zm-31.4,16.2V158.4l30.3,16.9Zm-31.4-17.4V141l30.3,16.9Zm-.7,0-30.3-16.9,30.3-16.9Zm-31.3,17.4-30.3-16.9,30.3-16.9Zm-31.4,17.5-30.3-16.9,30.3-16.9Zm-.4.6-30.3,16.9V193.4Zm0,34.9L112.8,262V228.3Zm0,35L112.8,297V263.3Zm.4.6v33.7l-30.3-16.9Zm31.4,17.4v33.7L144.5,315Zm31.3,17.5v33.7l-30.3-16.9Zm.7,0,30.3,16.9-30.3,16.9Zm31.4-17.5L268.6,315l-30.3,16.9Zm31.4-17.4L300,297.6l-30.3,16.9Zm.4-.6,30.3-16.9v33.7Zm0-35,30.3-16.9V262Zm0-34.9,30.3-16.9V227Zm0-34.9,30.3-16.9v33.7Zm-31.4-17.5L269,140.9v33.7Zm-31.4-17.5,30.3-16.9v33.7Zm-31.7,16.9V123.5l30.3,16.9Zm-31.4,17.5V141l30.3,16.9Zm-31.4,17.4V158.4l30.3,16.9Zm-.7,35L81.8,210.2l30.3-16.9Zm0,34.9L81.8,245.1l30.3-16.9Zm0,34.9L81.8,280l30.3-16.9Zm31,18.1-30.3,16.9V298.2Zm31.4,17.4-30.3,16.9V315.6Zm31.4,17.5-30.3,16.9V333ZM237.6,333v33.7l-30.3-16.9ZM269,315.6v33.7l-30.3-16.9Zm31.4-17.5v33.8L270,315Zm.7-34.9,30.3,16.9L301.1,297Zm0-34.9,30.3,16.9L301.1,262Zm0-35,30.3,16.9-30.3,16.9Zm0-34.9,30.3,16.9-30.3,16.9Zm-31.4,16.3V141L300,157.9Zm-31.4-17.5V123.5l30.3,16.9Zm-31.4-17.4V106l30.3,16.9Zm-.7,0-30.3-16.9L206.2,106Zm-31.3,17.4-30.3-16.9,30.3-16.9Zm-31.4,17.5-30.3-16.9,30.3-16.9Zm-31.4,17.4L81.8,175.2l30.3-16.9Zm-.4.6L81.4,209.6V175.9Zm0,35L81.4,244.6V210.9Zm0,34.9L81.4,279.5V245.8Zm0,34.9L81.4,314.4V280.7Zm.4.6v33.7L81.8,315Zm31.4,17.5v33.7l-30.3-16.9ZM174.9,333v33.7l-30.3-16.9Zm31.3,17.5v33.7l-30.3-16.9Zm.7,0,30.3,16.9-30.3,16.9ZM238.3,333l30.3,16.9-30.3,16.9Zm31.4-17.4L300,332.5l-30.3,16.9Zm31.4-17.5L331.4,315l-30.3,16.9Zm.3-.6,30.3-16.9v33.7Zm0-34.9,30.3-16.9v33.7Zm0-34.9,30.3-16.9v33.7Zm0-35,30.3-16.9v33.7Zm0-34.9,30.3-16.9v33.7Zm-31.3-17.5,30.3-16.9v33.7Zm-31.4-17.4L269,106v33.7Zm-31.4-17.5,30.3-16.9v33.7Zm-31.7,16.9V88.6l30.3,16.9Zm-31.4,17.5V106l30.3,16.9Zm-31.4,17.4V123.5l30.3,16.9ZM81.4,174.7V141l30.3,16.9Zm-.7,34.9L50.4,192.7l30.3-16.9Zm0,34.9L50.4,227.6l30.3-16.9Zm0,35L50.4,262.6l30.3-16.9Zm0,34.9L50.4,297.5l30.3-16.9Zm31,18L81.4,349.3V315.6Zm31.4,17.5-30.3,16.9V333Zm31.4,17.5-30.3,16.9V350.6Zm31.4,17.4-30.3,16.9V368ZM237.6,368v33.7l-30.3-16.9ZM269,350.5v33.8l-30.3-16.9ZM300.4,333v33.8L270,349.9Zm31.4-17.4v33.8l-30.3-16.9Zm.6-35,30.3,16.9-30.3,16.9Zm0-34.9,30.3,16.9-30.3,16.9Zm0-34.9,30.3,16.9-30.3,16.9Zm0-34.9,30.3,16.9-30.3,16.9Zm0-35,30.3,16.9-30.3,16.9Zm-31.3,16.3V123.5l30.3,16.9Zm-31.4-17.4V106L300,122.9Zm-31.4-17.5V88.6l30.3,16.9Zm-31.4-17.5V71.1L237.2,88Zm-.7,0L175.9,88l30.3-16.9Zm-31.3,17.5-30.3-16.9,30.3-16.9Zm-31.4,17.5-30.3-16.9L143.5,106Zm-31.4,17.4L81.8,140.3l30.3-16.9ZM80.7,174.7,50.4,157.8l30.3-16.9Zm-.3.6L50,192.1V158.4Zm0,34.9L50,227.1V193.4Zm0,34.9L50,262V228.3Zm0,35L50,296.9V263.2Zm0,34.9L50,331.9V298.2Zm.3.6v33.7L50.4,332.4ZM112.1,333v33.7L81.8,349.8Zm31.4,17.5v33.7l-30.3-16.9ZM174.9,368v33.7l-30.3-16.9Zm31.3,17.4v33.7l-30.3-16.9Zm.7,0,30.3,16.9-30.3,16.9ZM238.3,368l30.3,16.9-30.3,16.9Zm31.4-17.5L300,367.4l-30.3,16.9ZM301.1,333l30.3,16.9-30.3,16.9Zm31.3-17.4,30.3,16.9-30.3,16.9Zm.4-.6,30.3-16.9v33.8Zm0-34.9,30.3-16.9v33.7Zm0-35,30.3-16.9V262Zm0-34.9,30.3-16.9V227Zm0-34.9,30.3-16.9v33.7Z" fill="#fff" fill-rule="evenodd"/></g><polygon points="49.3 157.5 206.5 244.8 206.5 419.3 49.3 332 49.3 157.5" fill="none" stroke="#fff" stroke-linejoin="round" stroke-width="3"/><polygon points="49.3 157.5 206.5 244.8 363.7 157.5 206.5 70.3 49.3 157.5" fill="none" stroke="#fff" stroke-linejoin="round" stroke-width="3"/><polygon points="363.7 157.5 206.5 244.8 206.5 419.3 363.7 332 363.7 157.5" fill="none" stroke="#fff" stroke-linejoin="round" stroke-width="3"/><path d="M206.4,67.4a3.5,3.5,0,1,0,3.5,3.5A3.54314,3.54314,0,0,0,206.4,67.4Zm31.3,17.5a3.5,3.5,0,1,0,3.5,3.5A3.47822,3.47822,0,0,0,237.7,84.9Zm31.4,17.4a3.5,3.5,0,1,0,3.5,3.5A3.54313,3.54313,0,0,0,269.1,102.3Zm31.3,17.4a3.5,3.5,0,1,0,3.5,3.5A3.47822,3.47822,0,0,0,300.4,119.7Zm31.4,17.4a3.5,3.5,0,1,0,3.5,3.5A3.54313,3.54313,0,0,0,331.8,137.1Zm31.3,24.4a3.5,3.5,0,1,0-3.5-3.5A3.54315,3.54315,0,0,0,363.1,161.5Zm-62.7-7a3.5,3.5,0,1,0,3.5,3.5A3.47823,3.47823,0,0,0,300.4,154.5Zm-31.3-17.4a3.5,3.5,0,1,0,3.5,3.5A3.54313,3.54313,0,0,0,269.1,137.1Zm-31.4,17.4a3.5,3.5,0,1,0,3.5,3.5A3.47823,3.47823,0,0,0,237.7,154.5Zm0-34.8a3.5,3.5,0,1,0,3.5,3.5A3.47822,3.47822,0,0,0,237.7,119.7Zm-31.3,17.4a3.5,3.5,0,1,0,3.5,3.5A3.54314,3.54314,0,0,0,206.4,137.1ZM175,154.5a3.5,3.5,0,1,0,3.5,3.5A3.47823,3.47823,0,0,0,175,154.5Zm31.4-52.2a3.5,3.5,0,1,0,3.5,3.5A3.54314,3.54314,0,0,0,206.4,102.3ZM175,84.9a3.5,3.5,0,1,0,3.5,3.5A3.47822,3.47822,0,0,0,175,84.9Zm-31.3,17.4a3.5,3.5,0,1,0,3.5,3.5A3.54313,3.54313,0,0,0,143.7,102.3ZM175,119.7a3.5,3.5,0,1,0,3.5,3.5A3.47822,3.47822,0,0,0,175,119.7Zm-31.3,17.4a3.5,3.5,0,1,0,3.5,3.5A3.54313,3.54313,0,0,0,143.7,137.1Zm-31.4-17.4a3.5,3.5,0,1,0,3.5,3.5A3.54313,3.54313,0,0,0,112.3,119.7ZM81,137.1a3.5,3.5,0,1,0,3.5,3.5A3.54313,3.54313,0,0,0,81,137.1ZM49.6,154.5a3.5,3.5,0,1,0,3.5,3.5A3.54314,3.54314,0,0,0,49.6,154.5Zm62.7,0a3.5,3.5,0,1,0,3.5,3.5A3.54314,3.54314,0,0,0,112.3,154.5ZM331.8,172a3.5,3.5,0,1,0,3.5,3.5A3.54314,3.54314,0,0,0,331.8,172Zm31.3,17.4a3.5,3.5,0,1,0,3.5,3.5A3.47823,3.47823,0,0,0,363.1,189.4Zm-62.7,0a3.5,3.5,0,1,0,3.5,3.5A3.47823,3.47823,0,0,0,300.4,189.4ZM269.1,172a3.5,3.5,0,1,0,3.5,3.5A3.54314,3.54314,0,0,0,269.1,172Zm-31.4,17.4a3.5,3.5,0,1,0,3.5,3.5A3.47823,3.47823,0,0,0,237.7,189.4ZM206.4,172a3.5,3.5,0,1,0,3.5,3.5A3.54315,3.54315,0,0,0,206.4,172ZM175,189.4a3.5,3.5,0,1,0,3.5,3.5A3.47823,3.47823,0,0,0,175,189.4ZM143.7,172a3.5,3.5,0,1,0,3.5,3.5A3.54314,3.54314,0,0,0,143.7,172ZM81,172a3.5,3.5,0,1,0,3.5,3.5A3.54314,3.54314,0,0,0,81,172ZM49.6,189.4a3.5,3.5,0,1,0,3.5,3.5A3.54314,3.54314,0,0,0,49.6,189.4Zm62.7,0a3.5,3.5,0,1,0,3.5,3.5A3.54314,3.54314,0,0,0,112.3,189.4Zm219.5,17.4a3.5,3.5,0,1,0,3.5,3.5A3.54314,3.54314,0,0,0,331.8,206.8Zm31.3,17.4a3.5,3.5,0,1,0,3.5,3.5A3.47822,3.47822,0,0,0,363.1,224.2Zm-62.7,0a3.5,3.5,0,1,0,3.5,3.5A3.47822,3.47822,0,0,0,300.4,224.2Zm-31.3-17.4a3.5,3.5,0,1,0,3.5,3.5A3.54314,3.54314,0,0,0,269.1,206.8Zm-31.4,17.4a3.5,3.5,0,1,0,3.5,3.5A3.47822,3.47822,0,0,0,237.7,224.2Zm-31.3-17.4a3.5,3.5,0,1,0,3.5,3.5A3.54315,3.54315,0,0,0,206.4,206.8ZM175,224.2a3.5,3.5,0,1,0,3.5,3.5A3.47822,3.47822,0,0,0,175,224.2Zm-31.3-17.4a3.5,3.5,0,1,0,3.5,3.5A3.54314,3.54314,0,0,0,143.7,206.8Zm-62.7,0a3.5,3.5,0,1,0,3.5,3.5A3.54314,3.54314,0,0,0,81,206.8ZM49.6,224.2a3.5,3.5,0,1,0,3.5,3.5A3.54313,3.54313,0,0,0,49.6,224.2Zm62.7,0a3.5,3.5,0,1,0,3.5,3.5A3.54313,3.54313,0,0,0,112.3,224.2Zm219.5,17.6a3.5,3.5,0,1,0,3.5,3.5A3.47821,3.47821,0,0,0,331.8,241.8Zm31.3,17.4a3.5,3.5,0,1,0,3.5,3.5A3.41768,3.41768,0,0,0,363.1,259.2Zm-62.7,0a3.5,3.5,0,1,0,3.5,3.5A3.41768,3.41768,0,0,0,300.4,259.2Zm-31.3-17.4a3.5,3.5,0,1,0,3.5,3.5A3.47823,3.47823,0,0,0,269.1,241.8Zm-31.4,17.4a3.5,3.5,0,1,0,3.5,3.5A3.41768,3.41768,0,0,0,237.7,259.2Zm-31.3-17.4a3.5,3.5,0,1,0,3.5,3.5A3.47821,3.47821,0,0,0,206.4,241.8ZM175,259.2a3.5,3.5,0,1,0,3.5,3.5A3.41768,3.41768,0,0,0,175,259.2Zm-31.3-17.4a3.5,3.5,0,1,0,3.5,3.5A3.47821,3.47821,0,0,0,143.7,241.8Zm-62.7,0a3.5,3.5,0,1,0,3.5,3.5A3.47822,3.47822,0,0,0,81,241.8ZM49.6,259.2a3.5,3.5,0,1,0,3.5,3.5A3.47822,3.47822,0,0,0,49.6,259.2Zm62.7,0a3.5,3.5,0,1,0,3.5,3.5A3.47822,3.47822,0,0,0,112.3,259.2Zm219.5,17.3a3.5,3.5,0,1,0,3.5,3.5A3.54314,3.54314,0,0,0,331.8,276.5Zm31.3,17.4a3.5,3.5,0,1,0,3.5,3.5A3.47823,3.47823,0,0,0,363.1,293.9Zm-62.7,0a3.5,3.5,0,1,0,3.5,3.5A3.47823,3.47823,0,0,0,300.4,293.9Zm-31.3-17.4a3.5,3.5,0,1,0,3.5,3.5A3.54314,3.54314,0,0,0,269.1,276.5Zm-31.4,17.4a3.5,3.5,0,1,0,3.5,3.5A3.47823,3.47823,0,0,0,237.7,293.9Zm-31.3-17.4a3.5,3.5,0,1,0,3.5,3.5A3.54315,3.54315,0,0,0,206.4,276.5ZM175,293.9a3.5,3.5,0,1,0,3.5,3.5A3.47823,3.47823,0,0,0,175,293.9Zm-31.3-17.4a3.5,3.5,0,1,0,3.5,3.5A3.54314,3.54314,0,0,0,143.7,276.5Zm-62.7,0a3.5,3.5,0,1,0,3.5,3.5A3.54314,3.54314,0,0,0,81,276.5ZM49.6,293.9a3.5,3.5,0,1,0,3.5,3.5A3.54314,3.54314,0,0,0,49.6,293.9Zm62.7,0a3.5,3.5,0,1,0,3.5,3.5A3.54314,3.54314,0,0,0,112.3,293.9Zm219.5,17.4a3.5,3.5,0,1,0,3.5,3.5A3.54313,3.54313,0,0,0,331.8,311.3Zm31.3,17.4a3.5,3.5,0,1,0,3.5,3.5A3.47823,3.47823,0,0,0,363.1,328.7Zm-62.7,0a3.5,3.5,0,1,0,3.5,3.5A3.47823,3.47823,0,0,0,300.4,328.7Zm-31.3-17.4a3.5,3.5,0,1,0,3.5,3.5A3.54313,3.54313,0,0,0,269.1,311.3Zm-31.4,17.4a3.5,3.5,0,1,0,3.5,3.5A3.47823,3.47823,0,0,0,237.7,328.7Zm-31.3-17.4a3.5,3.5,0,1,0,3.5,3.5A3.54314,3.54314,0,0,0,206.4,311.3ZM175,328.7a3.5,3.5,0,1,0,3.5,3.5A3.47823,3.47823,0,0,0,175,328.7Zm-31.3-17.4a3.5,3.5,0,1,0,3.5,3.5A3.54313,3.54313,0,0,0,143.7,311.3Zm-62.7,0a3.5,3.5,0,1,0,3.5,3.5A3.54313,3.54313,0,0,0,81,311.3ZM49.6,328.7a3.5,3.5,0,1,0,3.5,3.5A3.54314,3.54314,0,0,0,49.6,328.7Zm62.7,0a3.5,3.5,0,1,0,3.5,3.5A3.54314,3.54314,0,0,0,112.3,328.7Zm219.5,17.4a3.5,3.5,0,1,0,3.5,3.5A3.54313,3.54313,0,0,0,331.8,346.1Zm-31.4,17.5a3.5,3.5,0,1,0,3.5,3.5A3.47822,3.47822,0,0,0,300.4,363.6Zm-31.3-17.5a3.5,3.5,0,1,0,3.5,3.5A3.54313,3.54313,0,0,0,269.1,346.1Zm-31.4,17.5a3.5,3.5,0,1,0,3.5,3.5A3.47822,3.47822,0,0,0,237.7,363.6Zm-31.3-17.5a3.5,3.5,0,1,0,3.5,3.5A3.54314,3.54314,0,0,0,206.4,346.1ZM175,363.6a3.5,3.5,0,1,0,3.5,3.5A3.47822,3.47822,0,0,0,175,363.6Zm-31.3-17.5a3.5,3.5,0,1,0,3.5,3.5A3.54313,3.54313,0,0,0,143.7,346.1Zm-62.7,0a3.5,3.5,0,1,0,3.5,3.5A3.54313,3.54313,0,0,0,81,346.1Zm31.3,17.5a3.5,3.5,0,1,0,3.5,3.5A3.54313,3.54313,0,0,0,112.3,363.6ZM269.1,381a3.5,3.5,0,1,0,3.5,3.5A3.47823,3.47823,0,0,0,269.1,381Zm-31.4,17.4a3.5,3.5,0,1,0,3.5,3.5A3.47823,3.47823,0,0,0,237.7,398.4ZM206.4,381a3.5,3.5,0,1,0,3.5,3.5A3.47821,3.47821,0,0,0,206.4,381Zm0,34.8a3.5,3.5,0,1,0,3.5,3.5A3.54314,3.54314,0,0,0,206.4,415.8ZM175,398.4a3.5,3.5,0,1,0,3.5,3.5A3.47823,3.47823,0,0,0,175,398.4ZM143.7,381a3.5,3.5,0,1,0,3.5,3.5A3.47821,3.47821,0,0,0,143.7,381Z" fill="#fff" fill-rule="evenodd"/><circle cx="206.69999" cy="245.5" r="181.6" fill="none" stroke="#fff" stroke-miterlimit="10" stroke-width="7"/><path d="M519.3,168.2v65.9H622.2v18.4H519.3v72.3H626.6v18.4H496.5V149.7H626.7v18.4H519.3Z" fill="#fff"/><path d="M726.7,170V343.3H703.8V170H637.7V149.7H792.1V170Z" fill="#fff"/><path d="M976.7,149.7V343.3H953.8V253.5H835.4v89.8H812.5V149.7h22.9v85.4H953.9V149.7h22.8Z" fill="#fff"/><path d="M1029.80005,168.2v65.9h102.9v18.4h-102.9v72.3H1137.1001v18.4H1007V149.7H1137.2v18.4h-107.3999Z" fill="#fff"/><path d="M1166.5,343.3V149.7H1263c21.80005,0,37.1,4.1,46,12.3s13.4,22.5,13.4,42.8c0,17.9-2.4,30.3-7.3,37.4-4.9,7-14.1,11.6-27.80005,13.7v.4q32.25,2.25,32.2,37.4v49.5h-22.9V298.7q0-33.9-30.7-33.9h-76.6v78.4H1166.5Zm22.9-96.8h66.1c17.4,0,29.30005-2.5,35.6-7.6s9.5-14.6,9.5-28.6c0-17.5-2.4-28.9-7.1-34.2s-14.80005-7.9-30.19995-7.9h-73.9Z" fill="#fff"/><path d="M1430,147.8q57.45008,0,71.80005,16,14.4,16.05,14.4,80.1c0,46-4.6,74.5-13.80005,85.2-9.19995,10.8-33.4,16.2-72.4,16.2q-58.35,0-72.4-16c-9.4-10.7-14-38.3-14-82.8V232.9l.3-18.3q0-38.55,18.2-52.7C1374.2,152.5,1396.9,147.8,1430,147.8Zm-.1,18.4c-32.1,0-50.8,3.4-56.3,10.2-5.4,6.8-8.2,30.2-8.2,70.1q0,60,8.2,70.2,8.1,10.2,56.3,10.2,48.29994,0,56.4-10.2c5.4-6.8,8.19995-30.2,8.19995-70.2V233.9l-.1-18.3c0-21.4-3.8-34.9-11.3-40.7Q1471.7,166.2,1429.9,166.2Z" fill="#fff"/><path d="M1681.4,202.2h-22.69995c0-15.6-2.7-25.5-8.2-29.7-5.4-4.2-18.3-6.3-38.4-6.3-24,0-39.4,2-46.30005,6s-10.4,13-10.4,26.9c0,15.6,2.7,25.1,8.2,28.5,5.4,3.4,21.6,5.7,48.5,6.9,31.6,1.3,51.6,5.2,60.19995,11.5S1685.1,266.5,1685.1,288.5q0,35.7-14.80005,46.2c-9.8,7-31.6,10.5-65.19995,10.5q-43.79994,0-58.30005-10.6c-9.6-7-14.5-21.3-14.5-42.6l-.1-8.7h22.69995v4.8c0,17.3,2.80005,28.1,8.30005,32.3s19.69995,6.3,42.6,6.3c26.2,0,42.4-2.1,48.4-6.3s9.1-15.4,9.1-33.7c0-11.8-2.1-19.7-6.19995-23.6s-12.7-6.3-25.80005-7l-23.8-1.1L1585,254q-51.45008-3.45-51.5-51.1,0-33,15-44.1t59.80005-11.1q45.45007,0,59.19995,10.3C1676.80005,164.9,1681.4,179.6,1681.4,202.2Z" fill="#fff"/></svg>