<?xml version="1.0" encoding="utf-8"?>
<!-- Generator: Adobe Illustrator 24.3.0, SVG Export Plug-In . SVG Version: 6.00 Build 0)  -->
<svg version="1.1" id="Warstwa_2" xmlns="http://www.w3.org/2000/svg" xmlns:xlink="http://www.w3.org/1999/xlink" x="0px" y="0px"
	 viewBox="0 0 1080 270.6" style="enable-background:new 0 0 1080 270.6;" xml:space="preserve">
<style type="text/css">
	.st0{fill:#F3BA2F;}
</style>
<polygon class="st0" points="68.3,120.6 110,79 151.7,120.6 175.9,96.4 110,30.5 44.1,96.4 "/>
<rect x="9.9" y="120.6" transform="matrix(0.7071 -0.7071 0.7071 0.7071 -89.4697 59.4239)" class="st0" width="34.3" height="34.3"/>
<polygon class="st0" points="68.3,154.8 110,196.5 151.7,154.8 175.9,179 175.9,179 110,244.9 44.1,179.1 44.1,179 "/>
<rect x="175.8" y="120.6" transform="matrix(0.7071 -0.7071 0.7071 0.7071 -40.8609 176.7988)" class="st0" width="34.3" height="34.3"/>
<polygon class="st0" points="134.6,137.7 134.6,137.7 110,113.1 91.8,131.3 91.8,131.3 89.7,133.4 85.4,137.7 85.4,137.7 
	85.4,137.7 85.4,137.7 110,162.3 134.6,137.7 134.6,137.7 "/>
<path class="st0" d="M255,82.5h52.7c13.1,0,23,3.4,29.7,10.1c5.2,5.2,7.8,11.6,7.8,19.3v0.3c0,3.2-0.4,6.1-1.2,8.6
	c-0.8,2.5-1.9,4.7-3.2,6.7c-1.3,2-2.9,3.8-4.7,5.3c-1.8,1.5-3.7,2.8-5.7,3.9c6.6,2.5,11.8,5.9,15.5,10.2c3.8,4.3,5.7,10.2,5.7,17.8
	v0.3c0,5.2-1,9.7-3,13.6c-2,3.9-4.9,7.1-8.6,9.7s-8.2,4.5-13.5,5.8c-5.2,1.3-11.1,1.9-17.4,1.9h-54V82.5z M302.4,128.4
	c5.5,0,9.9-0.9,13.2-2.8c3.2-1.9,4.9-5,4.9-9.2v-0.3c0-3.8-1.4-6.7-4.2-8.7c-2.8-2-6.9-3-12.2-3h-24.7v24
	C279.4,128.4,302.4,128.4,302.4,128.4z M309.1,174.2c5.5,0,9.9-1,13-3c3.1-2,4.7-5.1,4.7-9.3v-0.3c0-3.8-1.5-6.8-4.4-9
	c-2.9-2.2-7.6-3.3-14.1-3.3h-28.9v25L309.1,174.2L309.1,174.2z"/>
<path class="st0" d="M382.9,82.5h25v113.7h-25V82.5z"/>
<path class="st0" d="M445.8,82.5h23.1l53.3,70v-70h24.7v113.7h-21.3l-55.1-72.3v72.3h-24.7V82.5z"/>
<path class="st0" d="M622.6,81.6h23.1l48.7,114.5h-26.2l-10.4-25.5h-48.1l-10.4,25.5h-25.5L622.6,81.6z M648.9,148.6l-15.1-36.9
	l-15.1,36.9H648.9z"/>
<path class="st0" d="M721.4,82.5h23.1l53.3,70v-70h24.7v113.7h-21.3l-55.1-72.3v72.3h-24.7V82.5z"/>
<path class="st0" d="M912.5,198.1c-8.3,0-16.1-1.5-23.2-4.5s-13.3-7.2-18.5-12.4c-5.2-5.3-9.3-11.5-12.2-18.6
	c-2.9-7.1-4.4-14.8-4.4-22.9v-0.3c0-8.1,1.5-15.7,4.4-22.8c2.9-7.1,7-13.3,12.2-18.7c5.2-5.4,11.4-9.6,18.7-12.7
	c7.3-3.1,15.3-4.6,24-4.6c5.3,0,10.1,0.4,14.5,1.3c4.4,0.9,8.4,2.1,11.9,3.6c3.6,1.5,6.9,3.4,9.9,5.5c3,2.2,5.8,4.5,8.4,7.1
	l-15.9,18.4c-4.4-4-9-7.1-13.6-9.4c-4.6-2.3-9.8-3.4-15.5-3.4c-4.8,0-9.2,0.9-13.2,2.8c-4.1,1.8-7.6,4.4-10.5,7.6
	c-2.9,3.2-5.2,7-6.8,11.3c-1.6,4.3-2.4,8.9-2.4,13.7v0.3c0,4.9,0.8,9.5,2.4,13.8c1.6,4.3,3.9,8.1,6.7,11.4c2.9,3.2,6.3,5.8,10.4,7.7
	c4.1,1.9,8.5,2.8,13.4,2.8c6.5,0,12-1.2,16.5-3.6c4.5-2.4,9-5.6,13.4-9.7l15.9,16.1c-2.9,3.1-6,6-9.1,8.4c-3.1,2.5-6.6,4.6-10.3,6.4
	c-3.7,1.8-7.8,3.1-12.3,4.1C923,197.7,918,198.1,912.5,198.1z"/>
<path class="st0" d="M988.6,82.5h85.6v22.3h-60.9v23.1h53.6V150h-53.6v23.9h61.7v22.3h-86.4V82.5z"/>
</svg>
