<?xml version="1.0" encoding="utf-8"?>
<!-- Generator: Adobe Illustrator 24.3.0, SVG Export Plug-In . SVG Version: 6.00 Build 0)  -->
<svg version="1.1" xmlns="http://www.w3.org/2000/svg" xmlns:xlink="http://www.w3.org/1999/xlink" x="0px" y="0px"
	 viewBox="0 0 1694.5 339.1" style="enable-background:new 0 0 1694.5 339.1;" xml:space="preserve">
<style type="text/css">
	.st0{display:none;}
	.st1{display:inline;fill:#222222;}
	.st2{fill:#222222;}
	.st3{fill:#E17726;stroke:#E17726;stroke-linecap:round;stroke-linejoin:round;}
	.st4{fill:#E27625;stroke:#E27625;stroke-linecap:round;stroke-linejoin:round;}
	.st5{fill:#D5BFB2;stroke:#D5BFB2;stroke-linecap:round;stroke-linejoin:round;}
	.st6{fill:#233447;stroke:#233447;stroke-linecap:round;stroke-linejoin:round;}
	.st7{fill:#CC6228;stroke:#CC6228;stroke-linecap:round;stroke-linejoin:round;}
	.st8{fill:#E27525;stroke:#E27525;stroke-linecap:round;stroke-linejoin:round;}
	.st9{fill:#F5841F;stroke:#F5841F;stroke-linecap:round;stroke-linejoin:round;}
	.st10{fill:#C0AC9D;stroke:#C0AC9D;stroke-linecap:round;stroke-linejoin:round;}
	.st11{fill:#161616;stroke:#161616;stroke-linecap:round;stroke-linejoin:round;}
	.st12{fill:#763E1A;stroke:#763E1A;stroke-linecap:round;stroke-linejoin:round;}
	.st13{fill:url(#SVGID_1_);}
	.st14{fill:#FFFFFF;}
	.st15{clip-path:url(#SVGID_3_);}
	.st16{opacity:0.2;fill:#FFFFFF;enable-background:new    ;}
	.st17{fill:url(#SVGID_4_);}
	.st18{fill:url(#SVGID_5_);}
	.st19{clip-path:url(#SVGID_7_);}
	.st20{fill:#3375BB;}
	.st21{fill:none;stroke:#FFFFFF;stroke-width:8;stroke-linecap:round;stroke-linejoin:round;stroke-miterlimit:10;}
	.st22{fill:#F17221;}
	.st23{fill:#F17324;}
	.st24{fill:#F2782B;}
	.st25{fill:#F49254;}
	.st26{fill:#F59559;}
	.st27{fill:#191F27;}
	.st28{fill:#222222;stroke:#222222;stroke-miterlimit:10;}
	.st29{font-family:'MyriadPro-Regular';}
	.st30{font-size:56.6665px;}
</style>
<g id="Warstwa_5" class="st0">
	<rect x="-24.5" y="-116.6" class="st1" width="1719" height="588.3"/>
</g>
<g id="Layer_1">
	<path class="st2" d="M357.9,307.4c-2.5-1.6-5.2-2.8-7.8-4.3c-1.7-0.8-3.4-1.8-4.9-3c-2.5-2-2-6.1,0.6-7.8c3.7-2.5,9.9-1.1,10.5,4
		c0,0.1,0.1,0.2,0.2,0.2h5.6c0.1,0,0.2-0.1,0.2-0.2c0,0,0,0,0,0c-0.3-3.5-1.6-6.4-4.1-8.3c-2.3-1.8-5.1-2.7-8-2.7
		c-14.8,0-16.2,15.7-8.2,20.7c0.9,0.6,8.8,4.5,11.5,6.2c2.8,1.7,3.6,4.8,2.4,7.3c-1.1,2.3-3.9,3.8-6.8,3.7c-3.1-0.2-5.5-1.9-6.4-4.5
		c-0.1-0.6-0.2-1.2-0.2-1.8c0-0.1-0.1-0.2-0.2-0.2h-6.1c-0.1,0-0.2,0.1-0.2,0.2c0,4.4,1.1,6.8,4.1,9.1c2.6,2,5.8,3,9,3
		c8.3,0,12.6-4.7,13.5-9.6C363.5,314.5,362.1,310.2,357.9,307.4z"/>
	<path class="st2" d="M93.8,286h-5.6c-0.1,0-0.2,0.1-0.2,0.2l-5,16.5c0,0.1-0.2,0.2-0.3,0.2c-0.1,0-0.1-0.1-0.2-0.2l-5-16.5
		c0-0.1-0.1-0.2-0.2-0.2H68c-0.1,0-0.2,0.1-0.2,0.2v42c0,0.1,0.1,0.2,0.2,0.2l0,0h6.1c0.1,0,0.2-0.1,0.2-0.2c0,0,0,0,0,0v-31.9
		c0-0.1,0.1-0.2,0.2-0.2c0.1,0,0.2,0.1,0.2,0.1l5,16.6l0.3,1.2c0,0.1,0.1,0.2,0.2,0.2H85c0.1,0,0.2-0.1,0.2-0.2l0.3-1.2l5-16.6
		c0-0.1,0.2-0.2,0.3-0.1c0.1,0,0.1,0.1,0.1,0.2v31.9c0,0.1,0.1,0.2,0.2,0.2c0,0,0,0,0,0h6.1c0.1,0,0.2-0.1,0.2-0.2l0,0v-42
		c0-0.1-0.1-0.2-0.2-0.2H93.8z"/>
	<path class="st2" d="M264.7,286c-0.1,0-0.2,0.1-0.2,0.2l-5,16.5c0,0.1-0.2,0.2-0.3,0.1c-0.1,0-0.1-0.1-0.1-0.1l-5-16.5
		c0-0.1-0.1-0.2-0.2-0.2h-9.3c-0.1,0-0.2,0.1-0.2,0.2v42c0,0.1,0.1,0.2,0.2,0.2c0,0,0,0,0,0h6.1c0.1,0,0.2-0.1,0.2-0.2v-31.9
		c0-0.1,0.1-0.2,0.2-0.2c0.1,0,0.2,0.1,0.2,0.1l5,16.6l0.3,1.2c0,0.1,0.1,0.2,0.2,0.2h4.7c0.1,0,0.2-0.1,0.2-0.2l0.4-1.2l5-16.6
		c0-0.1,0.2-0.2,0.3-0.1c0.1,0,0.1,0.1,0.1,0.2v31.9c0,0.1,0.1,0.2,0.2,0.2c0,0,0,0,0,0h6.1c0.1,0,0.2-0.1,0.2-0.2v-42
		c0-0.1-0.1-0.2-0.2-0.2H264.7z"/>
	<path class="st2" d="M186.3,286h-28.7c-0.1,0-0.2,0.1-0.2,0.2v5.3c0,0.1,0.1,0.2,0.2,0.2h11.1v36.6c0,0.1,0.1,0.2,0.2,0.2
		c0,0,0,0,0,0h6.1c0.1,0,0.2-0.1,0.2-0.2v-36.6h11c0.1,0,0.2-0.1,0.2-0.2v-5.3C186.5,286.1,186.4,286,186.3,286z"/>
	<path class="st2" d="M222.2,328.5h5.5c0.1,0,0.2-0.1,0.2-0.2c0,0,0,0,0-0.1L216.5,286c0-0.1-0.1-0.2-0.2-0.2h-8
		c-0.1,0-0.2,0.1-0.2,0.2l-11.4,42.2c0,0.1,0,0.2,0.2,0.3c0,0,0,0,0.1,0h5.5c0.1,0,0.2-0.1,0.2-0.2l3.3-12.3c0-0.1,0.1-0.2,0.2-0.2
		h12.2c0.1,0,0.2,0.1,0.2,0.2l3.3,12.2C221.9,328.4,222,328.5,222.2,328.5z M207.6,309.9l4.5-16.4c0-0.1,0.2-0.2,0.3-0.1
		c0.1,0,0.1,0.1,0.1,0.1l4.5,16.4c0,0.1,0,0.2-0.1,0.3c0,0,0,0-0.1,0h-8.9C207.7,310.2,207.6,310.1,207.6,309.9
		C207.6,310,207.6,309.9,207.6,309.9z"/>
	<path class="st2" d="M316.6,328.5h5.5c0.1,0,0.2-0.1,0.2-0.2c0,0,0,0,0-0.1L310.9,286c0-0.1-0.1-0.2-0.2-0.2h-7.9
		c-0.1,0-0.2,0.1-0.2,0.2l-11.4,42.2c0,0.1,0,0.2,0.2,0.3c0,0,0,0,0,0h5.5c0.1,0,0.2-0.1,0.2-0.2l3.3-12.3c0-0.1,0.1-0.2,0.2-0.2
		h12.2c0.1,0,0.2,0.1,0.2,0.2l3.3,12.3C316.4,328.4,316.5,328.5,316.6,328.5z M302,309.9l4.5-16.4c0-0.1,0.2-0.2,0.3-0.1
		c0.1,0,0.1,0.1,0.1,0.1l4.5,16.4c0,0.1,0,0.2-0.2,0.3c0,0,0,0-0.1,0h-8.9C302.1,310.2,302,310.1,302,309.9
		C302,310,302,310,302,309.9z"/>
	<path class="st2" d="M122.2,322.3v-13c0-0.1,0.1-0.2,0.2-0.2c0,0,0,0,0,0h16.2c0.1,0,0.2-0.1,0.2-0.2v-5.3c0-0.1-0.1-0.2-0.2-0.2
		h-16.2c-0.1,0-0.2-0.1-0.2-0.2v-11.2c0-0.1,0.1-0.2,0.2-0.2c0,0,0,0,0,0h18.4c0.1,0,0.2-0.1,0.2-0.2v-5.3c0-0.1-0.1-0.2-0.2-0.2
		h-25c-0.1,0-0.2,0.1-0.2,0.2v42c0,0.1,0.1,0.2,0.2,0.2c0,0,0,0,0,0h25.8c0.1,0,0.2-0.1,0.2-0.2l0,0v-5.5c0-0.1-0.1-0.2-0.2-0.2l0,0
		h-19.2C122.3,322.5,122.2,322.4,122.2,322.3C122.2,322.3,122.2,322.3,122.2,322.3z"/>
	<path class="st2" d="M413.5,328.1l-21.1-21.8c-0.1-0.1-0.1-0.2,0-0.3c0,0,0,0,0,0l18.9-19.6c0.1-0.1,0.1-0.2,0-0.3
		c0,0-0.1-0.1-0.2-0.1h-7.7c-0.1,0-0.1,0-0.2,0.1l-16.1,16.7c-0.1,0.1-0.2,0.1-0.3,0c0,0-0.1-0.1-0.1-0.2v-16.4
		c0-0.1-0.1-0.2-0.2-0.2l0,0h-6.1c-0.1,0-0.2,0.1-0.2,0.2v42c0,0.1,0.1,0.2,0.2,0.2h6.1c0.1,0,0.2-0.1,0.2-0.2c0,0,0,0,0,0v-18.5
		c0-0.1,0.1-0.2,0.2-0.2c0.1,0,0.1,0,0.1,0.1l18.2,18.8c0,0,0.1,0.1,0.2,0.1h7.8c0.1,0,0.2-0.1,0.2-0.2
		C413.5,328.2,413.5,328.2,413.5,328.1z"/>
	<polygon class="st3" points="357.3,0 256.1,75 274.9,30.8 	"/>
	<polygon class="st4" points="124.1,0 224.3,75.7 206.4,30.8 	"/>
	<polygon class="st4" points="320.9,173.9 294,215.1 351.6,231 368,174.8 	"/>
	<polygon class="st4" points="113.4,174.8 129.8,231 187.3,215.1 160.5,173.9 	"/>
	<polygon class="st4" points="184.2,104.3 168.1,128.5 225.2,131.1 223.3,69.6 	"/>
	<polygon class="st4" points="297.2,104.3 257.5,68.9 256.1,131.1 313.2,128.5 	"/>
	<polygon class="st4" points="187.3,215.1 221.7,198.4 192.1,175.2 	"/>
	<polygon class="st4" points="259.6,198.4 294,215.1 289.2,175.2 	"/>
	<polygon class="st5" points="294,215.1 259.6,198.4 262.3,220.8 262,230.2 	"/>
	<polygon class="st5" points="187.3,215.1 219.3,230.2 219.1,220.8 221.7,198.4 	"/>
	<polygon class="st6" points="219.9,160.4 191.3,152 211.5,142.7 	"/>
	<polygon class="st6" points="261.4,160.4 269.9,142.7 290.2,152 	"/>
	<polygon class="st7" points="187.3,215.1 192.3,173.9 160.5,174.8 	"/>
	<polygon class="st7" points="289,173.9 294,215.1 320.9,174.8 	"/>
	<polygon class="st7" points="313.2,128.5 256.1,131.1 261.4,160.4 269.9,142.7 290.2,152 	"/>
	<polygon class="st7" points="191.3,152 211.5,142.7 219.9,160.4 225.2,131.1 168.1,128.5 	"/>
	<polygon class="st8" points="168.1,128.5 192.1,175.2 191.3,152 	"/>
	<polygon class="st8" points="290.2,152 289.2,175.2 313.2,128.5 	"/>
	<polygon class="st8" points="225.2,131.1 219.9,160.4 226.6,195 228,149.4 	"/>
	<polygon class="st8" points="256.1,131.1 253.4,149.3 254.7,195 261.4,160.4 	"/>
	<polygon class="st9" points="261.4,160.4 254.7,195 259.6,198.4 289.2,175.2 290.2,152 	"/>
	<polygon class="st9" points="191.3,152 192.1,175.2 221.7,198.4 226.6,195 219.9,160.4 	"/>
	<polygon class="st10" points="262,230.2 262.3,220.8 259.8,218.6 221.5,218.6 219.1,220.8 219.3,230.2 187.3,215.1 198.5,224.3 
		221.2,240 260.1,240 282.8,224.3 294,215.1 	"/>
	<polygon class="st11" points="259.6,198.4 254.7,195 226.6,195 221.7,198.4 219.1,220.8 221.5,218.6 259.8,218.6 262.3,220.8 	"/>
	<polygon class="st12" points="361.5,79.9 370.1,38.5 357.3,0 259.6,72.5 297.2,104.3 350.3,119.8 361.9,106.1 356.9,102.4 365,95 
		358.8,90.1 366.9,84 	"/>
	<polygon class="st12" points="111.3,38.5 119.9,79.9 114.4,84 122.5,90.1 116.4,95 124.5,102.4 119.4,106.1 131.1,119.8 
		184.2,104.3 221.7,72.5 124.1,0 	"/>
	<polygon class="st9" points="350.3,119.8 297.2,104.3 313.2,128.5 289.2,175.2 320.9,174.8 368,174.8 	"/>
	<polygon class="st9" points="184.2,104.3 131.1,119.8 113.4,174.8 160.5,174.8 192.1,175.2 168.1,128.5 	"/>
	<polygon class="st9" points="256.1,131.1 259.6,72.5 274.9,30.8 206.4,30.8 221.7,72.5 225.2,131.1 226.5,149.5 226.6,195 
		254.7,195 254.8,149.5 	"/>
</g>
<g id="Warstwa_2">
	
		<linearGradient id="SVGID_1_" gradientUnits="userSpaceOnUse" x1="734.3471" y1="349.9095" x2="498.2615" y2="2.4718" gradientTransform="matrix(1 0 0 -1 0 356.9)">
		<stop  offset="0" style="stop-color:#1ABC9C"/>
		<stop  offset="1" style="stop-color:#1A5DAF"/>
	</linearGradient>
	<circle class="st13" cx="650" cy="131.1" r="129.8"/>
	<path class="st14" d="M597.6,100.5"/>
	<g>
		<defs>
			<circle id="SVGID_2_" cx="650" cy="131.1" r="129.8"/>
		</defs>
		<clipPath id="SVGID_3_">
			<use xlink:href="#SVGID_2_"  style="overflow:visible;"/>
		</clipPath>
		<g class="st15">
			<path class="st16" d="M767.5,132.2l-40.6,99.5l-21.5-50.8L725,133h-10.6l-16,39.8L682.6,133h-10.4l19.6,47.9l-21.3,50.8
				l-40.8-99.5l-20.5-48.3l21.1-50.8l40.6,99.5h12L635.3,20.4h-9.8l-23.6,55.1l-23.7-55.1h-9.7l-47.4,112.2H533l40.8-99.5l21.3,50.8
				l-19.6,47.9H586L601.8,92l16,40.2l47.4,112.3h9.7l23.7-55.5l23.6,55.5h9.8l47.6-112.3C779.5,132.2,767.5,132.2,767.5,132.2z"/>
			
				<linearGradient id="SVGID_4_" gradientUnits="userSpaceOnUse" x1="649.7736" y1="354.1469" x2="613.3591" y2="110.9649" gradientTransform="matrix(1 0 0 -1 0 356.9)">
				<stop  offset="0" style="stop-color:#1ABC9C"/>
				<stop  offset="1" style="stop-color:#1A5DAF"/>
			</linearGradient>
			<path class="st17" d="M659.5,181.8c-3.1,0.7-6.3,1.1-9.5,1.1c-22.6,0-41.9-17.2-43.3-42.8c0.3-4.9,1.1-9.7,2.3-14.5L574,110.8
				c-3.7,10-5.5,20.6-5.5,31.2c0,43.9,37.6,79.4,81.5,79.4c10.1,0,20.1-2,29.5-5.8L659.5,181.8z"/>
			
				<linearGradient id="SVGID_5_" gradientUnits="userSpaceOnUse" x1="688.8192" y1="348.2901" x2="652.3641" y2="105.1081" gradientTransform="matrix(1 0 0 -1 0 356.9)">
				<stop  offset="0" style="stop-color:#1ABC9C"/>
				<stop  offset="1" style="stop-color:#1A5DAF"/>
			</linearGradient>
			<path class="st18" d="M650,58.1c-11.4,0-22.7,2.4-33,7.2l19.7,33.5c4.3-1.5,8.8-2.2,13.3-2.2c20,0,41.3,16.8,43.3,37.5l-57,0.2
				l88.8,37.8c4.4-10.7,6.5-22.2,6.2-33.7C731.4,94.6,693.9,58.1,650,58.1z"/>
			<path class="st14" d="M659.5,173.1c-3.1,0.7-6.3,1.1-9.5,1.1c-22.6,0-41.9-17.2-43.3-42.8c0.3-4.9,1.1-9.7,2.3-14.5L574,102
				c-3.7,10-5.5,20.6-5.5,31.2c0,43.9,37.6,79.4,81.5,79.4c10.1,0,20.1-1.9,29.5-5.6L659.5,173.1z M650,49.5
				c-11.4,0-22.7,2.4-33,7.2l19.7,33.5c4.3-1.5,8.8-2.2,13.3-2.2c20,0,41.3,16.8,43.3,37.5l-57,0.2l88.8,37.8
				c4.4-10.7,6.5-22.2,6.2-33.7C731.4,85.7,693.9,49.5,650,49.5z"/>
		</g>
	</g>
	<path class="st2" d="M487.3,326.8v-25.3l-9.9,18.9h-4.1l-9.9-18.9v25.3h-7.4v-38.2h8l11.3,21.8l11.4-21.8h7.9v38.2H487.3z
		 M503.2,332.3c0.6,0.2,1.2,0.3,1.8,0.4c0.5,0.1,1,0.1,1.4,0.1c0.4,0,0.9-0.1,1.3-0.3c0.4-0.2,0.8-0.5,1.1-0.9
		c0.4-0.6,0.7-1.2,1-1.9c0.3-0.8,0.7-1.8,1-3l-11.1-28.2h7.4l7.6,21.9l6.8-22h6.8l-11.9,33.8c-0.7,1.9-1.9,3.6-3.5,4.8
		c-1.8,1.3-3.9,2-6.1,1.9c-0.6,0-1.2,0-1.8-0.1c-0.6-0.1-1.2-0.3-1.9-0.5L503.2,332.3L503.2,332.3z M559.9,320.2v6.5h-26.5v-38.2
		h26.1v6.5h-18.6v9.2h16.1v6h-16.1v10H559.9L559.9,320.2z M581.7,325.3c-1.1,0.5-2.3,0.9-3.5,1.3c-1.4,0.4-2.9,0.7-4.4,0.7
		c-1,0-1.9-0.1-2.8-0.4c-0.8-0.2-1.6-0.7-2.3-1.2c-0.7-0.6-1.2-1.3-1.6-2.2c-0.4-1-0.6-2.1-0.6-3.2v-16.2h-3.7v-5.5h3.7v-9.2h7.2
		v9.2h5.9v5.5h-5.9v13.8c-0.1,0.8,0.2,1.6,0.8,2.1c0.5,0.4,1.2,0.6,1.9,0.6c0.8,0,1.5-0.1,2.2-0.4c0.7-0.2,1.3-0.5,1.8-0.7
		L581.7,325.3z M612.3,326.8H605v-15.9c0.1-1.7-0.3-3.5-1.2-4.9c-0.8-1.1-2.2-1.7-3.5-1.6c-0.7,0-1.4,0.2-2,0.4
		c-0.7,0.3-1.4,0.7-2,1.2c-0.7,0.5-1.3,1.2-1.8,1.9c-0.5,0.7-0.9,1.5-1.2,2.4v16.5h-7.2v-39.3h7.2v16.3c1-1.8,2.5-3.2,4.2-4.2
		c1.8-1,3.8-1.5,5.9-1.5c1.5-0.1,3.1,0.3,4.5,0.9c1.1,0.6,2,1.4,2.7,2.5c0.7,1.1,1.1,2.3,1.3,3.5c0.3,1.3,0.4,2.7,0.4,4.1
		L612.3,326.8L612.3,326.8z M632.2,327.3c-2.1,0-4.2-0.4-6.1-1.2c-3.5-1.4-6.3-4.2-7.7-7.8c-0.7-1.8-1.1-3.7-1.1-5.6
		c0-1.9,0.3-3.9,1-5.7c0.7-1.7,1.7-3.3,3-4.7c1.3-1.3,2.9-2.4,4.7-3.1c2-0.8,4.1-1.2,6.2-1.2c2.1,0,4.2,0.4,6.2,1.2
		c1.7,0.7,3.3,1.8,4.6,3.2c1.3,1.3,2.3,2.9,2.9,4.6c0.7,1.8,1,3.6,1,5.5v1.3c0,0.4-0.1,0.7-0.1,1.1H625c0.1,1,0.4,2,0.8,3
		c0.8,1.6,2.3,2.9,4,3.5c0.9,0.3,1.8,0.5,2.7,0.5c1.4,0,2.8-0.4,4.1-1.1c1.2-0.6,2.1-1.6,2.6-2.8l6.2,1.8c-1.1,2.2-2.8,4.1-5,5.3
		C637.9,326.7,635.1,327.4,632.2,327.3L632.2,327.3z M639.5,310.3c-0.1-1.9-0.9-3.7-2.3-5.1c-2.8-2.6-7.2-2.6-10,0
		c-0.7,0.6-1.2,1.4-1.6,2.2c-0.4,0.9-0.7,1.9-0.7,2.9L639.5,310.3L639.5,310.3z M668.7,304.8c-2,0-4,0.4-5.9,1.3
		c-1.6,0.7-3,2-3.7,3.6v17.1h-7.2v-28.2h6.6v6.1c0.5-0.9,1.1-1.8,1.8-2.6c0.7-0.8,1.4-1.4,2.2-2c0.7-0.5,1.5-1,2.4-1.3
		c0.7-0.3,1.5-0.4,2.3-0.5h0.9c0.2,0,0.4,0,0.6,0L668.7,304.8L668.7,304.8z M687.2,288.6h6.8l4.3,12.7l4.3-12.7h6.9L703,306
		l4.8,12.2l10.8-29.7h8.1l-15.6,38.2h-6.2l-6.6-16l-6.6,16h-6.2L670,288.5h8l10.9,29.7l4.8-12.2L687.2,288.6z M735.5,327.3
		c-1.3,0-2.6-0.2-3.8-0.7c-1.1-0.4-2.2-1.1-3.1-1.9c-0.9-0.8-1.5-1.8-2-2.8c-0.5-1.1-0.7-2.3-0.7-3.5c0-1.3,0.3-2.5,0.9-3.7
		c0.6-1.1,1.4-2.1,2.5-2.9c1.2-0.9,2.4-1.5,3.8-1.9c1.6-0.5,3.2-0.7,4.8-0.7c1.2,0,2.5,0.1,3.7,0.3c1.1,0.2,2.2,0.5,3.2,0.9v-1.6
		c0.1-1.6-0.5-3.2-1.6-4.3c-1.3-1.1-3-1.6-4.7-1.5c-1.5,0-3,0.3-4.4,0.8c-1.6,0.6-3,1.4-4.4,2.4l-2.2-4.6c3.5-2.3,7.6-3.6,11.7-3.5
		c3.4-0.2,6.8,0.8,9.4,2.9c2.3,2.2,3.6,5.4,3.4,8.6v8.8c-0.1,0.6,0.1,1.1,0.4,1.6c0.3,0.4,0.8,0.6,1.3,0.5v6.1
		c-1,0.2-2.1,0.4-3.2,0.4c-1.1,0.1-2.2-0.3-3.2-0.9c-0.7-0.6-1.2-1.5-1.4-2.4l-0.2-1.6c-1.2,1.6-2.8,2.9-4.6,3.8
		C739.5,326.9,737.5,327.3,735.5,327.3L735.5,327.3z M737.6,322c1.2,0,2.4-0.2,3.5-0.7c1-0.4,1.9-1,2.6-1.8c0.7-0.5,1.1-1.2,1.2-2
		v-3.2c-0.9-0.3-1.8-0.6-2.8-0.8c-1-0.2-1.9-0.3-2.9-0.3c-1.6-0.1-3.2,0.4-4.6,1.3c-1.1,0.7-1.8,1.9-1.8,3.2c0,1.2,0.5,2.3,1.4,3.1
		C735.1,321.6,736.3,322.1,737.6,322L737.6,322z M759.2,287.5h7.2v30.3c-0.1,0.9,0.2,1.7,0.8,2.4c0.6,0.6,1.3,0.9,2.2,0.9
		c0.5,0,1-0.1,1.4-0.2c0.5-0.1,1-0.3,1.5-0.5l1,5.5c-1.1,0.5-2.2,0.9-3.4,1.1c-1.2,0.2-2.3,0.4-3.5,0.4c-1.9,0.1-3.8-0.5-5.3-1.8
		c-1.3-1.4-2-3.3-1.9-5.1L759.2,287.5L759.2,287.5z M776.8,287.5h7.2v30.3c-0.1,0.9,0.2,1.7,0.8,2.4c0.6,0.6,1.3,0.9,2.2,0.9
		c0.5,0,1-0.1,1.4-0.2c0.5-0.1,1-0.3,1.5-0.5l1,5.5c-1.1,0.5-2.2,0.9-3.4,1.1c-1.2,0.2-2.3,0.4-3.5,0.4c-1.9,0.1-3.8-0.5-5.3-1.8
		c-1.3-1.4-2-3.3-1.9-5.1L776.8,287.5L776.8,287.5z M807.6,327.3c-2.1,0-4.2-0.4-6.1-1.2c-3.5-1.4-6.3-4.2-7.7-7.8
		c-0.7-1.8-1.1-3.7-1.1-5.6c0-1.9,0.3-3.9,1-5.7c0.7-1.7,1.7-3.3,3-4.7c1.3-1.3,2.9-2.4,4.7-3.1c2-0.8,4.1-1.2,6.2-1.2
		c2.1,0,4.2,0.4,6.2,1.2c1.7,0.7,3.3,1.8,4.6,3.2c1.3,1.3,2.3,2.9,2.9,4.6c0.7,1.7,1,3.6,1,5.4v1.3c0,0.4-0.1,0.7-0.1,1.1h-21.9
		c0.1,1,0.4,2,0.8,3c0.8,1.6,2.3,2.9,4,3.5c0.9,0.3,1.8,0.5,2.7,0.5c1.4,0,2.8-0.4,4.1-1.1c1.2-0.6,2.1-1.6,2.6-2.8l6.2,1.8
		c-1.1,2.2-2.8,4.1-5,5.3C813.3,326.6,810.4,327.4,807.6,327.3z M814.9,310.3c-0.1-1.9-0.9-3.8-2.3-5.1c-2.8-2.6-7.2-2.6-10,0
		c-0.7,0.6-1.2,1.4-1.6,2.2c-0.4,0.9-0.7,1.9-0.7,2.9L814.9,310.3L814.9,310.3z M844,325.3c-1.1,0.5-2.3,0.9-3.5,1.3
		c-1.4,0.4-2.9,0.7-4.4,0.7c-1,0-1.9-0.1-2.8-0.4c-0.8-0.2-1.6-0.7-2.3-1.2c-0.7-0.6-1.2-1.3-1.6-2.2c-0.4-1-0.6-2.1-0.6-3.2v-16.2
		H825v-5.5h3.7v-9.2h7.2v9.2h5.9v5.5h-5.9v13.8c-0.1,0.8,0.2,1.6,0.8,2.1c0.5,0.4,1.2,0.6,1.9,0.6c0.8,0,1.5-0.1,2.2-0.4
		c0.7-0.2,1.3-0.5,1.8-0.7L844,325.3z"/>
</g>
<g id="Warstwa_3">
	<path class="st2" d="M914.6,295.1h-12.3v-7.3h33.6v7.3h-12.3v31.3h-8.9V295.1z"/>
	<path class="st2" d="M944.3,300.7c1-1.4,2.4-2.5,4.1-3.2c1.8-0.7,3.8-1.1,6.1-1.1v7.9c-1-0.1-1.6-0.1-1.9-0.1
		c-2.5,0-4.4,0.7-5.8,2.1c-1.4,1.4-2.1,3.4-2.1,6.2v14h-8.6v-29.6h8.2V300.7z"/>
	<path class="st2" d="M986.4,296.8v29.6h-8.2v-3.5c-1.1,1.3-2.5,2.3-4.1,3c-1.6,0.7-3.3,1-5.1,1c-3.9,0-7-1.1-9.3-3.4
		c-2.3-2.2-3.4-5.6-3.4-10v-16.7h8.6v15.5c0,4.8,2,7.2,6,7.2c2.1,0,3.7-0.7,5-2c1.2-1.4,1.9-3.4,1.9-6v-14.6H986.4z"/>
	<path class="st2" d="M1001,326.8c-2.5,0-4.9-0.3-7.2-0.9c-2.3-0.6-4.2-1.4-5.6-2.3l2.9-6.2c1.3,0.8,2.9,1.5,4.8,2.1
		c1.9,0.5,3.7,0.8,5.5,0.8c3.6,0,5.5-0.9,5.5-2.7c0-0.8-0.5-1.5-1.5-1.8c-1-0.4-2.5-0.7-4.6-0.9c-2.4-0.4-4.4-0.8-6-1.3
		c-1.6-0.5-3-1.3-4.1-2.5c-1.1-1.2-1.7-2.9-1.7-5.2c0-1.9,0.5-3.5,1.6-5c1.1-1.5,2.7-2.6,4.7-3.4c2.1-0.8,4.6-1.2,7.4-1.2
		c2.1,0,4.2,0.2,6.2,0.7c2.1,0.4,3.8,1.1,5.2,1.9l-2.9,6.1c-2.6-1.5-5.5-2.2-8.5-2.2c-1.8,0-3.2,0.3-4.1,0.8c-0.9,0.5-1.4,1.2-1.4,2
		c0,0.9,0.5,1.6,1.5,1.9c1,0.4,2.6,0.7,4.7,1c2.4,0.4,4.4,0.8,5.9,1.3c1.5,0.4,2.9,1.3,4,2.5c1.1,1.2,1.7,2.9,1.7,5.1
		c0,1.8-0.6,3.5-1.7,4.9c-1.1,1.4-2.7,2.6-4.8,3.4C1006.4,326.4,1003.9,326.8,1001,326.8z"/>
	<path class="st2" d="M1036.1,325c-0.8,0.6-1.9,1.1-3.1,1.4c-1.2,0.3-2.5,0.4-3.9,0.4c-3.5,0-6.3-0.9-8.2-2.7
		c-1.9-1.8-2.9-4.4-2.9-7.9V304h-4.6v-6.6h4.6v-7.2h8.6v7.2h7.4v6.6h-7.4v12.1c0,1.2,0.3,2.2,0.9,2.9c0.7,0.7,1.6,1,2.8,1
		c1.4,0,2.5-0.4,3.5-1.1L1036.1,325z"/>
	<path class="st2" d="M1108.8,287.8l-12.6,38.6h-9.6l-8.5-26.1l-8.8,26.1h-9.5l-12.7-38.6h9.3l8.7,27.1l9.1-27.1h8.3l8.8,27.3
		l9-27.3H1108.8z"/>
	<path class="st2" d="M1119.6,296.3c4.6,0,8.1,1.1,10.6,3.3c2.5,2.2,3.7,5.5,3.7,9.9v16.9h-8v-3.7c-1.6,2.8-4.6,4.1-9,4.1
		c-2.3,0-4.3-0.4-5.9-1.2c-1.7-0.8-2.9-1.8-3.8-3.2c-0.9-1.4-1.3-2.9-1.3-4.6c0-2.8,1-4.9,3.1-6.5c2.1-1.6,5.3-2.4,9.6-2.4h6.8
		c0-1.9-0.6-3.3-1.7-4.3c-1.1-1-2.8-1.5-5.1-1.5c-1.6,0-3.1,0.3-4.7,0.8c-1.5,0.5-2.8,1.1-3.9,2l-3.1-6c1.6-1.1,3.5-2,5.8-2.6
		C1114.9,296.6,1117.2,296.3,1119.6,296.3z M1118.9,321c1.5,0,2.8-0.3,3.9-1c1.1-0.7,1.9-1.7,2.4-3v-3h-5.9c-3.5,0-5.3,1.2-5.3,3.5
		c0,1.1,0.4,2,1.3,2.6C1116.2,320.7,1117.4,321,1118.9,321z"/>
	<path class="st2" d="M1138.3,285.5h8.6v40.9h-8.6V285.5z"/>
	<path class="st2" d="M1151.6,285.5h8.6v40.9h-8.6V285.5z"/>
	<path class="st2" d="M1193.9,311.7c0,0.1-0.1,0.9-0.2,2.3h-22.4c0.4,1.8,1.4,3.3,2.9,4.4c1.5,1.1,3.4,1.6,5.6,1.6
		c1.5,0,2.9-0.2,4.1-0.7c1.2-0.5,2.3-1.2,3.4-2.2l4.6,5c-2.8,3.2-6.9,4.8-12.2,4.8c-3.3,0-6.3-0.6-8.9-1.9c-2.6-1.3-4.6-3.1-5.9-5.5
		c-1.4-2.3-2.1-4.9-2.1-7.9c0-2.9,0.7-5.5,2-7.8c1.4-2.4,3.3-4.2,5.7-5.5c2.4-1.3,5.1-2,8.1-2c2.9,0,5.5,0.6,7.9,1.9
		c2.4,1.2,4.2,3,5.5,5.4C1193.2,305.9,1193.9,308.6,1193.9,311.7z M1178.5,302.8c-1.9,0-3.6,0.6-4.9,1.7c-1.3,1.1-2.1,2.6-2.4,4.5
		h14.6c-0.3-1.9-1.1-3.4-2.4-4.5C1182,303.4,1180.4,302.8,1178.5,302.8z"/>
	<path class="st2" d="M1215.4,325c-0.8,0.6-1.9,1.1-3.1,1.4c-1.2,0.3-2.5,0.4-3.9,0.4c-3.5,0-6.3-0.9-8.2-2.7
		c-1.9-1.8-2.9-4.4-2.9-7.9V304h-4.6v-6.6h4.6v-7.2h8.6v7.2h7.4v6.6h-7.4v12.1c0,1.2,0.3,2.2,0.9,2.9c0.7,0.7,1.6,1,2.8,1
		c1.4,0,2.5-0.4,3.5-1.1L1215.4,325z"/>
	<g>
		<defs>
			<rect id="SVGID_6_" x="933.8" y="4.9" width="251" height="251"/>
		</defs>
		<clipPath id="SVGID_7_">
			<use xlink:href="#SVGID_6_"  style="overflow:visible;"/>
		</clipPath>
		<g class="st19">
			<path class="st20" d="M1059.3,255.9c69.3,0,125.5-56.2,125.5-125.5S1128.6,4.9,1059.3,4.9S933.8,61,933.8,130.4
				S990,255.9,1059.3,255.9z"/>
			<path class="st21" d="M1060.2,59.8c24.8,20.7,53.2,19.4,61.4,19.4c-1.8,117.8-15.3,94.4-61.4,127.5c-46-33-59.5-9.7-61.3-127.5
				C1006.9,79.2,1035.4,80.5,1060.2,59.8z"/>
		</g>
	</g>
</g>
<g id="Warstwa_4">
	<g>
		<path class="st22" d="M1553.1,251.4c-1.3,0-2.7,0-4,0c-1.3-0.7-2.6-0.4-3.9-0.4c-56.8,0-113.6,0-170.4,0c-1.3,0-2.7-0.4-3.9,0.4
			c-0.5,0-1.1,0-1.6,0c-6.2-1-12.1-2.2-17.1-6.6c-5.7-5-9.9-10.6-10.5-18.5c-0.1-0.8,0.1-1.6-0.5-2.3c0-1.6,0-3.2,0-4.8
			c0.7-1.3,0.4-2.6,0.4-3.9c0-57.1,0-114.2,0-171.2c0-1.3,0.4-2.7-0.4-3.9c0-0.8,0-1.6,0-2.4c1.3-4.9,1.3-10,4.8-14.4
			c5.4-6.8,11.6-11.9,20.6-12.5c0.7-0.1,1.4,0.1,1.9-0.5c0.8,0,1.6,0,2.4,0c1.3,0.7,2.6,0.4,3.9,0.4c57.9,0,115.8,0,173.6,0
			c1.3,0,2.7,0.4,3.9-0.4c0.5,0,1.1,0,1.6,0c9.3,0.6,16.5,4.7,22.3,11.9c4.1,5.1,4.9,11,5.8,17c0,1.1,0,2.2,0,3.2
			c-0.7,1.3-0.4,2.6-0.4,3.9c0,56.8,0,113.6,0,170.4c0,1.3-0.4,2.7,0.4,3.9c0,0.8,0,1.6,0,2.4c-1.3,4-0.7,8.5-3.1,12.1
			c-5.4,8-11.7,14.8-22.3,15.4C1555.4,250.9,1554.1,250.6,1553.1,251.4z"/>
		<path class="st23" d="M1552.3,10.5c-1.6,1-3.4,0.8-5.1,0.8c-57.1,0-114.2,0-171.3,0c-1.7,0-3.5,0.3-5.1-0.8
			C1431.3,10.5,1491.8,10.5,1552.3,10.5z"/>
		<path class="st24" d="M1341.1,40.3c1.1,1.6,0.8,3.4,0.8,5.1c0,56.3,0,112.6,0,168.9c0,1.7,0.2,3.5-0.8,5.1
			C1341.1,159.6,1341.1,99.9,1341.1,40.3z"/>
		<path class="st25" d="M1582,220.9c-1.2-1.4-0.8-3.1-0.8-4.6c0-56.2,0-112.4,0-168.6c0-1.7-0.4-3.5,0.8-5.1
			C1582,102.1,1582,161.5,1582,220.9z"/>
		<path class="st26" d="M1370.8,251.4c1.2-1.2,2.8-0.8,4.2-0.8c56.3,0,112.7,0,169,0c1.7,0,3.5-0.4,5.1,0.8
			C1489.7,251.4,1430.3,251.4,1370.8,251.4z"/>
		<path class="st27" d="M1553.1,87.9c-0.6,0.8-1.2,1.7-1.8,2.5c-10,12.9-19.9,25.9-30,38.7c-1.8,2.3-2,3.7-0.1,6.1
			c9.6,12.1,18.8,24.4,28.4,36.4c2.2,2.7,1.8,4-0.9,5.9c-5.5,3.9-10.8,8-16,12.2c-2,1.6-3,1.4-4.4-0.6c-8-10.5-16.2-20.9-24.2-31.5
			c-2-2.7-2.9-2.5-4.8,0.1c-7.9,10.5-16.1,20.7-24,31.2c-1.7,2.3-2.9,2.3-5,0.6c-5.3-4.3-10.7-8.4-16.3-12.4
			c-2.2-1.6-2.3-2.7-0.6-4.7c9.6-12.2,18.9-24.6,28.6-36.8c1.9-2.4,2.1-3.9,0.1-6.4c-10-12.7-19.8-25.7-29.9-38.3
			c-2.3-2.9-1.9-4.2,0.9-6.2c5.4-3.8,10.6-7.8,15.6-11.9c2.2-1.8,3.2-1.3,4.7,0.7c8.5,11.2,17.2,22.2,25.7,33.4
			c2.1,2.8,3.1,2.5,5.1-0.1c8.4-11.1,17.1-22,25.4-33.1c1.9-2.5,3-2.5,5.3-0.6c5.3,4.3,10.8,8.3,16.2,12.5
			C1552,86.1,1553.2,86.4,1553.1,87.9z"/>
		<path class="st27" d="M1431.1,106.1c0,16.7,0.2,33.4,0,50.2c-0.3,25.8-13,43.9-37,53.3c-6.4,2.5-13,4.2-19.7,5.2
			c-2.3,0.3-3.5,0.1-3.4-2.7c0.2-6.8,0.1-13.6,0-20.5c0-2,0.6-2.9,2.7-3.1c2.5-0.3,5-0.8,7.5-1.5c13.4-3.9,22.2-14.5,23.5-28.4
			c0.2-2.1,0.2-4.3,0.2-6.4c0-33.4,0.1-66.9-0.1-100.3c0-3.7,1-4.9,4.7-4.7c5.7,0.3,11.5,0.4,17.2,0c3.9-0.2,4.6,1.3,4.6,4.8
			C1431.1,70,1431.2,88,1431.1,106.1C1431.2,106.1,1431.2,106.1,1431.1,106.1z"/>
	</g>
	<text transform="matrix(1 0 0 1 1333.5135 326.283)" class="st28 st29 st30">Jaxx Wallet</text>
</g>
</svg>
